<svg width="469" height="370" viewBox="0 0 469 370" fill="none" xmlns="http://www.w3.org/2000/svg">
<path d="M31.2593 321.204C20.4823 309.749 12.1933 295.352 7.22728 277.784C-4.87272 234.97 -3.36072 182.673 24.0093 145.856C41.0093 122.981 66.1393 107.24 93.8013 100.836C122.569 94.1772 129.778 68.7012 148.319 48.6622C163.959 31.7622 185.639 18.3562 207.013 10.1622C264.452 -11.8568 350.653 0.832249 383.938 58.6052C392.66 73.7442 395.556 92.3542 405.788 106.621C416.734 121.885 434.678 129.459 445.734 144.427C456.906 159.553 463.382 177.904 465.808 196.459C468.958 220.551 465.633 245.091 459.781 268.674C431.568 382.361 277.521 350.185 190.222 354.039C164.222 355.186 138.17 358.064 112.222 356.007C82.1843 353.631 52.3243 343.592 31.2593 321.204Z" fill="#F0F0FF"/>
<path d="M233.442 369.892C351.492 369.892 447.189 359.935 447.189 347.652C447.189 335.369 351.492 325.412 233.442 325.412C115.393 325.412 19.6953 335.369 19.6953 347.652C19.6953 359.935 115.393 369.892 233.442 369.892Z" fill="#E0DEFF"/>
<path d="M267.272 217.938C268.154 221.492 267.793 225.225 267.295 228.863C266.662 234.556 265.298 240.143 263.237 245.487C260.481 252.231 255.995 258.129 250.232 262.587C248.829 263.647 247.272 264.485 245.615 265.071C244.347 265.511 243.039 265.822 241.709 266.002C238.924 266.402 236 266.367 232.784 266.543C217.561 267.369 202.948 264.856 189.89 256.524C185.855 253.953 182.01 250.83 179.681 246.645C178.381 244.334 177.687 241.731 177.663 239.08C177.65 237.722 177.863 236.372 178.292 235.084C178.538 234.338 178.868 233.623 179.275 232.951C182.628 227.404 190.022 226.022 196.502 226.051C188.025 224.636 180.266 220.421 174.466 214.079C171.222 210.509 168.589 205.94 168.613 201.186C168.617 200.66 168.653 200.135 168.721 199.613C168.833 198.781 169.059 197.968 169.391 197.196C171.144 192.982 175.765 189.825 180.046 191.278C176.133 186.211 172.215 181.148 168.29 176.087C165.524 172.502 162.702 168.845 161.19 164.57C159.81 160.985 159.812 157.015 161.196 153.432C161.483 152.764 161.838 152.128 162.255 151.532C162.598 151.045 162.99 150.595 163.427 150.19C166.3 147.473 170.975 146.541 174.165 148.852C171.397 142.133 168.6 135.301 167.844 128.074C167.088 120.847 168.649 113.037 173.644 107.748C174.911 106.415 176.392 105.302 178.026 104.456C179.204 103.838 180.45 103.357 181.738 103.023C183.695 102.452 185.754 102.315 187.77 102.623C189.785 102.931 191.709 103.676 193.407 104.806C197.507 107.718 199.483 112.726 201.156 117.465C203.489 124.078 205.652 130.745 207.643 137.465C206.856 132.351 212.26 127.765 217.417 128.149C218.197 128.207 218.968 128.348 219.717 128.571C221.081 128.988 222.363 129.635 223.508 130.485C225.889 132.271 227.766 134.644 228.957 137.371C231.057 142.105 231.381 147.392 231.685 152.555C232.053 158.888 232.42 165.218 232.785 171.543C233.109 166.857 238.637 163.743 243.202 164.859C243.443 164.921 243.686 164.99 243.924 165.069C245.303 165.525 246.579 166.249 247.678 167.199C249.928 169.204 251.559 171.81 252.378 174.71C253.707 179.217 253.428 184.02 253.136 188.704L251.585 213.776C252.441 210.947 255.515 209.311 258.494 209.416C259.207 209.43 259.913 209.555 260.587 209.789C261.164 209.995 261.72 210.258 262.246 210.573C264.804 212.293 266.603 214.929 267.272 217.938Z" fill="#C3B7FC"/>
<path d="M236.471 248.31C239.371 253.981 242.395 259.593 245.614 265.07C244.347 265.509 243.038 265.821 241.708 266.001C240.919 264.643 240.137 263.282 239.376 261.908C237.006 257.646 234.699 253.342 232.454 248.998C213.665 250.045 194.893 246.647 177.662 239.079C177.65 237.721 177.862 236.371 178.291 235.084C194.673 242.459 212.548 245.917 230.498 245.184C225.518 235.356 220.815 225.381 216.389 215.261C199.669 213.881 183.409 209.09 168.611 201.184C168.616 200.658 168.652 200.132 168.719 199.611C168.832 198.778 169.057 197.965 169.389 197.194C183.37 204.869 198.758 209.64 214.629 211.219C210 200.526 205.623 189.727 201.424 178.919C201.304 178.619 201.191 178.319 201.078 178.019C185.569 173.819 172.646 164.376 161.191 153.425C161.479 152.757 161.834 152.12 162.25 151.525C162.593 151.038 162.986 150.588 163.422 150.183C173.822 160.207 185.475 169.046 199.322 173.443C194.475 160.724 189.922 147.886 185.777 134.927C182.464 124.967 179.871 114.781 178.019 104.449C179.198 103.831 180.443 103.35 181.731 103.016C183.773 115.639 187.519 127.934 191.561 140.085C195.365 151.494 199.423 162.819 203.734 174.059C207.696 171.368 209.834 167.169 211.534 162.72C213.456 157.659 215.049 152.42 216.463 147.199C218.185 141.115 219.273 134.869 219.709 128.561C221.073 128.978 222.355 129.625 223.5 130.475C222.85 137.285 221.528 144.015 219.552 150.566C216.837 159.95 214.218 172.379 205.175 177.766C209.853 189.802 214.812 201.725 220.054 213.536C234.083 201.151 242.659 183.733 243.921 165.063C245.301 165.519 246.577 166.242 247.675 167.193C245.811 186.598 236.504 204.527 221.706 217.219C222.888 219.849 224.081 222.47 225.285 225.084C228.323 231.65 231.428 238.244 234.685 244.763C246.068 235.64 255.585 223.526 258.485 209.41C259.198 209.423 259.905 209.549 260.578 209.783C261.156 209.989 261.712 210.251 262.237 210.567C258.996 225.659 248.711 238.608 236.471 248.31Z" fill="#DFDBFC"/>
<path d="M354.587 245.823C353.776 249.09 354.107 252.523 354.565 255.866C355.147 261.099 356.401 266.236 358.296 271.149C360.83 277.348 364.954 282.77 370.251 286.868C371.541 287.842 372.972 288.612 374.495 289.151C375.661 289.555 376.864 289.842 378.086 290.007C380.647 290.372 383.334 290.343 386.286 290.507C400.281 291.267 413.715 288.957 425.719 281.297C429.428 278.934 432.963 276.062 435.104 272.215C436.299 270.09 436.938 267.697 436.96 265.26C436.971 264.013 436.775 262.773 436.381 261.591C436.156 260.906 435.854 260.248 435.481 259.631C432.399 254.531 425.602 253.26 419.644 253.283C427.438 251.983 434.57 248.108 439.902 242.278C442.884 238.996 445.302 234.795 445.282 230.425C445.278 229.941 445.245 229.458 445.182 228.979C445.078 228.214 444.871 227.466 444.566 226.757C442.954 222.884 438.706 219.981 434.766 221.317C438.366 216.659 441.969 212.004 445.573 207.352C448.116 204.052 450.711 200.694 452.104 196.764C453.373 193.468 453.371 189.819 452.098 186.525C451.834 185.912 451.508 185.328 451.124 184.782C450.81 184.334 450.449 183.92 450.047 183.548C447.406 181.048 443.108 180.193 440.175 182.318C442.72 176.141 445.291 169.861 445.986 163.218C446.681 156.575 445.246 149.395 440.658 144.533C439.493 143.307 438.132 142.284 436.63 141.506C435.547 140.938 434.402 140.496 433.218 140.189C431.419 139.664 429.526 139.538 427.673 139.821C425.82 140.104 424.051 140.789 422.49 141.828C418.725 144.505 416.904 149.109 415.366 153.466C413.222 159.546 411.234 165.673 409.403 171.849C410.127 167.149 405.158 162.93 400.418 163.285C399.703 163.337 398.995 163.467 398.307 163.673C397.054 164.056 395.875 164.651 394.822 165.432C392.634 167.074 390.908 169.255 389.812 171.763C387.885 176.115 387.584 180.975 387.304 185.722C386.966 191.54 386.628 197.358 386.288 203.178C385.988 198.869 380.909 196.007 376.712 197.033C376.491 197.089 376.268 197.153 376.049 197.225C374.782 197.645 373.609 198.31 372.597 199.183C370.532 201.026 369.035 203.42 368.283 206.085C367.062 210.228 367.318 214.643 367.583 218.95C368.058 226.632 368.533 234.314 369.009 241.998C368.222 239.398 365.396 237.898 362.657 237.99C362.002 238.002 361.353 238.118 360.734 238.333C360.203 238.522 359.692 238.763 359.208 239.054C356.857 240.634 355.202 243.057 354.587 245.823Z" fill="#E08675"/>
<path d="M382.902 273.744C380.238 278.957 377.456 284.117 374.496 289.151C375.661 289.555 376.864 289.842 378.087 290.007C378.813 288.758 379.531 287.507 380.231 286.244C382.41 282.327 384.532 278.371 386.595 274.376C403.869 275.339 421.126 272.214 436.966 265.257C436.977 264.01 436.781 262.77 436.387 261.588C421.327 268.366 404.895 271.544 388.393 270.87C392.971 261.836 397.294 252.666 401.363 243.362C416.733 242.093 431.681 237.69 445.284 230.422C445.28 229.938 445.246 229.455 445.184 228.976C445.079 228.211 444.872 227.463 444.568 226.754C431.715 233.81 417.568 238.196 402.978 239.648C407.234 229.817 411.257 219.89 415.118 209.954C415.228 209.681 415.332 209.406 415.435 209.131C429.693 205.266 441.574 196.589 452.104 186.522C451.839 185.909 451.513 185.325 451.13 184.779C450.815 184.33 450.454 183.917 450.053 183.545C440.497 192.76 429.78 200.886 417.053 204.928C421.509 193.236 425.692 181.434 429.505 169.52C432.551 160.363 434.935 150.999 436.637 141.501C435.554 140.933 434.409 140.491 433.225 140.184C431.347 151.784 427.904 163.092 424.187 174.262C420.69 184.75 416.959 195.161 412.996 205.495C409.355 203.021 407.386 199.16 405.829 195.07C404.062 190.417 402.597 185.598 401.298 180.802C399.715 175.208 398.715 169.467 398.314 163.668C397.06 164.051 395.882 164.646 394.829 165.427C395.427 171.688 396.643 177.875 398.459 183.897C400.954 192.524 403.359 203.95 411.675 208.897C407.376 219.963 402.816 230.925 397.997 241.781C385.1 230.396 377.216 214.382 376.056 197.219C374.788 197.639 373.615 198.304 372.604 199.177C374.318 217.016 382.875 233.499 396.478 245.167C395.391 247.585 394.294 249.995 393.188 252.397C390.395 258.433 387.54 264.497 384.543 270.488C374.078 262.102 365.328 250.965 362.66 237.988C362.005 238 361.356 238.116 360.737 238.331C360.206 238.52 359.694 238.761 359.211 239.052C362.194 252.921 371.646 264.825 382.902 273.744Z" fill="#D7594A"/>
<path d="M457.243 250.707C454.157 252.32 451.568 254.886 449.014 257.223C446.382 259.631 443.813 262.108 441.308 264.654C436.294 269.74 431.547 275.082 427.008 280.596C417.977 291.716 409.56 303.321 401.792 315.358C397.383 322.092 393.105 328.911 388.871 335.758C388.058 337.073 390.129 338.294 390.941 336.978C405.786 312.915 421.299 289.045 440.816 268.452C443.565 265.55 446.393 262.727 449.299 259.982C452.183 257.264 455.504 254.795 457.973 251.69C458.076 251.584 458.138 251.446 458.148 251.298C458.158 251.151 458.115 251.005 458.027 250.887C457.939 250.769 457.812 250.686 457.669 250.652C457.525 250.619 457.374 250.639 457.243 250.707V250.707Z" fill="#ECBF4C"/>
<path d="M468.173 244.498C466.731 242.398 463.192 242.861 461.003 243.316C455.838 244.387 451.332 247.88 447.645 251.716C444.942 254.547 442.509 257.624 440.377 260.908C438.11 264.121 436.41 267.699 435.348 271.486C435.319 271.578 435.315 271.675 435.337 271.769C435.358 271.863 435.404 271.949 435.47 272.02C435.536 272.09 435.62 272.141 435.712 272.168C435.804 272.195 435.902 272.197 435.995 272.174C436.134 272.295 436.3 272.379 436.479 272.418C436.658 272.458 436.844 272.452 437.02 272.401C442.824 270.894 448.347 268.465 453.38 265.208C455.936 263.551 458.357 261.696 460.622 259.661C463.099 257.593 465.256 255.169 467.022 252.469C468.34 250.285 469.751 246.785 468.173 244.498Z" fill="#ECBF4C"/>
<path d="M431.911 272.651C432.973 269.508 433.93 266.342 434.711 263.151C435.488 260.023 436.088 256.853 436.511 253.657C436.87 250.888 436.994 247.949 435.65 245.757C435.069 244.763 434.141 244.019 433.044 243.668C431.947 243.317 430.759 243.385 429.709 243.857C427.121 244.849 425.16 247.332 423.753 249.872C421.78 253.771 420.621 258.03 420.346 262.391C420.071 266.752 420.686 271.123 422.153 275.239C422.642 276.549 423.271 277.803 424.029 278.977C424.642 279.919 425.39 280.765 426.249 281.488C426.359 281.649 426.512 281.776 426.69 281.854C426.733 281.888 426.773 281.922 426.817 281.954C426.853 281.982 426.893 282.002 426.937 282.014C426.98 282.026 427.026 282.029 427.071 282.023C427.115 282.017 427.158 282.002 427.197 281.979C427.236 281.956 427.27 281.926 427.297 281.89C427.538 281.815 427.751 281.672 427.913 281.479C430.05 279.102 430.911 275.59 431.911 272.651Z" fill="#ECBF4C"/>
<path d="M418.445 286.472C418.426 283.251 418.302 280.042 418.011 276.863C417.734 273.745 417.282 270.645 416.659 267.578C416.112 264.923 415.296 262.185 413.37 260.603C412.522 259.875 411.434 259.486 410.317 259.512C409.199 259.538 408.13 259.976 407.316 260.742C405.255 262.471 404.241 265.371 403.753 268.142C403.177 272.345 403.461 276.622 404.588 280.712C405.716 284.802 407.664 288.619 410.313 291.933C411.175 292.98 412.147 293.931 413.213 294.77C414.074 295.439 415.028 295.978 416.045 296.37C416.197 296.484 416.377 296.553 416.566 296.57C416.616 296.588 416.666 296.607 416.715 296.624C416.757 296.638 416.801 296.644 416.844 296.641C416.888 296.638 416.93 296.626 416.969 296.606C417.009 296.587 417.043 296.56 417.072 296.526C417.1 296.493 417.122 296.455 417.135 296.413C417.332 296.268 417.484 296.07 417.571 295.842C418.782 292.985 418.464 289.485 418.445 286.472Z" fill="#ECBF4C"/>
<path d="M406.349 302.734C405.998 299.534 405.549 296.353 404.928 293.22C404.331 290.146 403.563 287.108 402.628 284.12C401.811 281.536 400.717 278.896 398.639 277.52C397.72 276.883 396.598 276.608 395.489 276.749C394.38 276.889 393.362 277.435 392.631 278.281C390.759 280.213 390.049 283.202 389.849 286.014C389.709 290.254 390.432 294.478 391.974 298.43C393.517 302.382 395.847 305.979 398.823 309.003C399.79 309.956 400.857 310.802 402.005 311.527C402.93 312.104 403.935 312.542 404.987 312.827C405.15 312.923 405.336 312.972 405.525 312.969L405.679 313.007C405.722 313.017 405.767 313.018 405.81 313.011C405.853 313.004 405.895 312.988 405.932 312.964C405.969 312.941 406.002 312.91 406.027 312.874C406.052 312.838 406.07 312.797 406.079 312.754C406.26 312.589 406.389 312.376 406.453 312.14C407.354 309.174 406.677 305.728 406.349 302.734Z" fill="#ECBF4C"/>
<path d="M394.764 318.701C394.228 315.557 393.591 312.441 392.789 309.379C392.009 306.373 391.059 303.414 389.944 300.516C388.969 298.006 387.711 295.456 385.522 294.205C384.553 293.623 383.406 293.409 382.293 293.605C381.179 293.8 380.173 294.391 379.461 295.268C377.661 297.268 377.112 300.261 377.061 303.049C377.093 308.607 378.745 314.034 381.815 318.667C383.358 321.142 385.261 323.373 387.462 325.287C388.5 326.181 389.631 326.961 390.835 327.614C391.809 328.137 392.853 328.519 393.935 328.746C394.106 328.833 394.297 328.871 394.489 328.857C394.543 328.867 394.594 328.878 394.648 328.887C394.735 328.903 394.825 328.883 394.898 328.833C394.971 328.782 395.021 328.705 395.037 328.617C395.21 328.447 395.33 328.23 395.382 327.992C396.144 325.008 395.264 321.641 394.764 318.701Z" fill="#ECBF4C"/>
<path d="M403.773 325.108C406.943 324.754 410.114 324.508 413.278 324.431C416.381 324.35 419.486 324.446 422.578 324.717C425.26 324.96 428.058 325.466 429.865 327.223C430.692 327.994 431.214 329.037 431.334 330.161C431.453 331.285 431.163 332.415 430.517 333.342C429.086 335.621 426.367 336.98 423.701 337.793C418.351 339.298 412.678 339.21 407.377 337.539C404.572 336.74 401.903 335.526 399.456 333.939C398.31 333.188 397.247 332.317 396.287 331.339C395.514 330.547 394.859 329.648 394.342 328.67C394.212 328.53 394.122 328.357 394.082 328.17C394.058 328.121 394.033 328.07 394.009 328.026C393.97 327.947 393.964 327.855 393.993 327.771C394.021 327.687 394.082 327.617 394.162 327.578C394.278 327.366 394.453 327.192 394.667 327.078C397.33 325.524 400.812 325.439 403.773 325.108Z" fill="#ECBF4C"/>
<path d="M414.876 308.93C418.083 308.545 421.293 308.271 424.5 308.175C427.651 308.073 430.804 308.156 433.945 308.421C436.671 308.658 439.52 309.167 441.395 310.981C442.254 311.775 442.806 312.847 442.953 314.007C443.101 315.168 442.835 316.343 442.202 317.327C440.802 319.699 438.078 321.127 435.393 321.983C429.978 323.573 424.211 323.513 418.829 321.809C415.954 320.989 413.218 319.745 410.71 318.118C409.527 317.342 408.429 316.444 407.434 315.439C406.63 314.619 405.945 313.69 405.398 312.679C405.262 312.533 405.167 312.354 405.122 312.16C405.096 312.11 405.07 312.06 405.045 312.011C405.003 311.93 404.994 311.836 405.021 311.748C405.048 311.661 405.109 311.588 405.189 311.545C405.3 311.324 405.474 311.14 405.689 311.018C408.35 309.397 411.878 309.285 414.876 308.93Z" fill="#ECBF4C"/>
<path d="M466.592 279.085C466.653 277.773 466.345 276.47 465.705 275.322C465.065 274.175 464.118 273.229 462.969 272.591C458.458 269.753 452.24 270.978 447.351 272.051C441.88 273.249 436.647 275.352 431.868 278.273C430.708 278.985 429.559 279.663 428.354 280.287C427.989 280.476 427.59 280.219 427.277 280.612C425.118 283.335 435.877 286.424 437.736 286.952C443.167 288.49 449.147 289.289 454.685 288.087C459.439 287.059 466.097 284.853 466.592 279.085Z" fill="#ECBF4C"/>
<path d="M453.651 301.247C453.969 300.014 453.938 298.718 453.564 297.502C453.19 296.286 452.486 295.197 451.531 294.357C447.842 290.727 441.731 290.566 436.905 290.544C431.514 290.515 426.155 291.391 421.054 293.137C419.818 293.562 418.597 293.958 417.336 294.292C416.954 294.392 416.628 294.066 416.255 294.37C413.674 296.482 423.203 301.67 424.855 302.562C429.671 305.162 435.155 307.179 440.617 307.217C445.311 307.25 452.031 306.578 453.651 301.247Z" fill="#ECBF4C"/>
<path d="M318.391 77.1926L219.556 181.192L288.455 246.671L387.291 142.671L318.391 77.1926Z" fill="#ECBF4C"/>
<path d="M288.412 246.69L298.868 157.647L387.277 142.753L288.412 246.69Z" fill="#E5B340"/>
<path d="M219.555 181.192L305.538 172.052C307.666 171.826 309.644 170.85 311.119 169.299C312.594 167.748 313.47 165.724 313.59 163.587L318.421 77.2549L219.555 181.192Z" fill="#DFA331"/>
<path d="M396.836 195.291H312.837C311.137 195.291 309.759 196.669 309.759 198.369V336C309.759 337.7 311.137 339.078 312.837 339.078H396.836C398.536 339.078 399.914 337.7 399.914 336V198.369C399.914 196.669 398.536 195.291 396.836 195.291Z" fill="#C3B7FC"/>
<path d="M394.321 202.238H315.353V318.678H394.321V202.238Z" fill="#363271"/>
<path opacity="0.08" d="M394.321 318.679H315.353V202.238L394.321 318.679Z" fill="white"/>
<path d="M362.568 328.714C362.568 330.244 362.115 331.739 361.265 333.01C360.416 334.282 359.208 335.273 357.795 335.858C356.383 336.443 354.828 336.596 353.328 336.298C351.828 336 350.45 335.263 349.369 334.182C348.288 333.1 347.551 331.723 347.253 330.223C346.955 328.723 347.108 327.168 347.693 325.755C348.278 324.343 349.269 323.135 350.541 322.285C351.812 321.436 353.307 320.982 354.837 320.982C356.887 320.982 358.854 321.797 360.304 323.247C361.754 324.697 362.568 326.664 362.568 328.714Z" fill="#363271"/>
<path d="M384.575 153.866C362.181 153.866 344.028 167.481 344.028 184.276C344.028 193.215 349.172 201.254 357.36 206.818C357.52 209.349 357.893 211.926 357.991 213.145C358.266 216.536 358.786 219.902 359.546 223.217C359.6 223.454 359.723 223.669 359.9 223.835C360.077 224.001 360.3 224.11 360.539 224.148C360.779 224.187 361.025 224.152 361.244 224.05C361.464 223.947 361.649 223.781 361.773 223.573C364.099 219.736 366.637 216.03 369.373 212.473C374.306 213.954 379.429 214.7 384.579 214.686C406.972 214.686 425.125 201.072 425.125 184.277C425.125 167.482 406.968 153.866 384.575 153.866Z" fill="white"/>
<path d="M371.77 183.742C371.77 185.079 371.374 186.386 370.631 187.497C369.889 188.608 368.833 189.474 367.598 189.986C366.363 190.497 365.005 190.631 363.694 190.371C362.383 190.11 361.179 189.466 360.234 188.521C359.288 187.576 358.645 186.372 358.384 185.061C358.123 183.751 358.257 182.392 358.768 181.157C359.279 179.922 360.145 178.866 361.257 178.124C362.368 177.381 363.674 176.985 365.011 176.984C365.898 176.984 366.777 177.159 367.597 177.499C368.417 177.838 369.163 178.336 369.79 178.963C370.418 179.591 370.916 180.336 371.255 181.156C371.595 181.976 371.77 182.855 371.77 183.742V183.742Z" fill="#C3B7FC"/>
<path d="M393.111 183.742C393.111 185.079 392.715 186.386 391.972 187.497C391.23 188.609 390.174 189.475 388.94 189.987C387.705 190.498 386.346 190.632 385.035 190.372C383.724 190.111 382.52 189.467 381.574 188.522C380.629 187.577 379.985 186.373 379.725 185.062C379.464 183.751 379.598 182.392 380.109 181.157C380.621 179.922 381.487 178.867 382.598 178.124C383.709 177.382 385.016 176.985 386.353 176.985C388.145 176.985 389.864 177.697 391.131 178.964C392.398 180.232 393.11 181.95 393.111 183.742V183.742Z" fill="#C3B7FC"/>
<path d="M414.451 183.742C414.451 185.079 414.055 186.386 413.312 187.497C412.57 188.609 411.514 189.475 410.279 189.987C409.045 190.498 407.686 190.632 406.375 190.372C405.064 190.111 403.86 189.467 402.914 188.522C401.969 187.577 401.325 186.373 401.064 185.062C400.804 183.751 400.937 182.392 401.449 181.157C401.96 179.922 402.827 178.867 403.938 178.124C405.049 177.382 406.356 176.985 407.693 176.985C409.485 176.985 411.203 177.697 412.471 178.964C413.738 180.232 414.45 181.95 414.451 183.742V183.742Z" fill="#C3B7FC"/>
<path d="M352.872 274.559C352.392 275.559 351.892 276.559 351.382 277.559C350.755 278.776 349.894 279.857 348.848 280.741C347.803 281.624 346.593 282.292 345.288 282.706C343.984 283.121 342.61 283.273 341.246 283.156C339.883 283.038 338.556 282.651 337.342 282.019L309.512 267.539L309.212 267.379C307.975 266.735 306.881 265.847 305.995 264.771C305.109 263.694 304.449 262.45 304.054 261.112C303.659 259.775 303.538 258.372 303.697 256.986C303.856 255.601 304.293 254.262 304.982 253.049L306.292 250.729L308.332 247.129C308.898 246.14 309.265 245.05 309.412 243.919C309.942 239.709 309.332 230.329 293.632 229.479H216.782C201.972 230.279 200.592 238.669 200.922 243.159C201.045 244.655 201.496 246.106 202.242 247.409L204.242 250.949L205.442 253.049C206.128 254.263 206.563 255.603 206.721 256.988C206.879 258.373 206.756 259.776 206.361 261.113C205.965 262.451 205.304 263.694 204.418 264.771C203.532 265.847 202.438 266.734 201.202 267.379L201.072 267.449L173.072 282.019C171.858 282.652 170.532 283.038 169.169 283.156C167.806 283.274 166.433 283.121 165.129 282.706C163.825 282.292 162.616 281.624 161.572 280.741C160.527 279.857 159.667 278.776 159.042 277.559C158.562 276.629 158.102 275.709 157.652 274.789C152.262 263.679 149.282 252.999 153.842 240.509C155.302 236.564 157.589 232.977 160.551 229.99C163.512 227.002 167.079 224.684 171.012 223.189C197.876 212.927 226.458 207.906 255.212 208.399C283.962 207.907 312.54 212.928 339.402 223.189C343.335 224.682 346.902 227 349.864 229.988C352.826 232.976 355.113 236.563 356.572 240.509C361.102 252.909 358.202 263.539 352.872 274.559Z" fill="#DD6E5C"/>
<path d="M201.199 267.384L173.073 282.024C171.859 282.656 170.532 283.042 169.169 283.159C167.805 283.277 166.432 283.124 165.128 282.709C163.824 282.295 162.614 281.626 161.569 280.743C160.524 279.859 159.663 278.778 159.037 277.561C158.56 276.633 158.099 275.709 157.654 274.789L204.246 250.95L205.437 253.05C206.125 254.264 206.562 255.604 206.721 256.99C206.88 258.376 206.758 259.779 206.362 261.117C205.967 262.455 205.306 263.7 204.419 264.776C203.532 265.853 202.437 266.74 201.199 267.384V267.384Z" fill="#E08675"/>
<path d="M352.871 274.562C352.393 275.556 351.895 276.556 351.378 277.562C350.751 278.779 349.891 279.861 348.846 280.744C347.801 281.628 346.591 282.296 345.287 282.711C343.983 283.125 342.609 283.278 341.246 283.161C339.882 283.043 338.555 282.657 337.341 282.025L309.212 267.384C307.974 266.74 306.88 265.853 305.993 264.777C305.106 263.7 304.445 262.456 304.049 261.118C303.654 259.781 303.532 258.377 303.691 256.991C303.849 255.606 304.286 254.266 304.974 253.052L306.29 250.73L352.871 274.562Z" fill="#E08675"/>
<path opacity="0.3" d="M316.452 246.369C315.512 250.769 312.612 254.459 310.752 258.559C309.395 261.345 308.961 264.49 309.512 267.539L309.212 267.379C307.975 266.734 306.881 265.847 305.995 264.77C305.109 263.694 304.449 262.449 304.054 261.112C303.659 259.775 303.538 258.371 303.697 256.986C303.856 255.601 304.293 254.262 304.982 253.049L306.292 250.729L308.332 247.129C308.898 246.14 309.265 245.049 309.412 243.919C309.942 239.709 309.332 230.329 293.632 229.479H216.782C201.972 230.279 200.592 238.669 200.922 243.159C201.045 244.655 201.496 246.106 202.242 247.409L204.242 250.949L205.442 253.049C206.128 254.263 206.563 255.602 206.721 256.988C206.879 258.373 206.756 259.776 206.361 261.113C205.965 262.45 205.304 263.694 204.418 264.77C203.532 265.847 202.438 266.734 201.202 267.379L201.072 267.449C201.439 266.735 201.686 265.964 201.802 265.169C202.312 261.879 200.622 258.689 199.062 255.739C195.552 249.079 192.422 241.159 195.382 234.239C197.722 228.779 203.402 225.409 209.162 223.929C214.602 222.529 220.282 222.479 225.902 222.439C243.472 222.299 261.045 222.165 278.622 222.039C287.292 221.979 296.292 221.989 304.132 225.679C311.972 229.369 318.272 237.884 316.452 246.369Z" fill="#C1463D"/>
<path d="M333.703 312.039V335.813C333.703 336.305 333.607 336.792 333.418 337.246C333.23 337.7 332.955 338.113 332.607 338.461C332.259 338.808 331.846 339.084 331.392 339.272C330.938 339.46 330.451 339.556 329.959 339.556H179.912C179.42 339.556 178.933 339.46 178.479 339.272C178.025 339.084 177.612 338.808 177.264 338.461C176.916 338.113 176.641 337.7 176.452 337.246C176.264 336.792 176.168 336.305 176.168 335.813V312.039C176.169 311.404 176.331 310.78 176.64 310.226C176.95 309.672 177.395 309.206 177.935 308.872C209.745 289.144 216.914 234.609 218.215 221.237C218.293 220.419 218.674 219.66 219.282 219.107C219.889 218.554 220.681 218.247 221.503 218.246H229.193C231.062 218.246 232.855 218.989 234.176 220.311C235.498 221.632 236.241 223.425 236.241 225.294V232.067C236.241 232.558 236.337 233.045 236.525 233.499C236.712 233.953 236.988 234.366 237.335 234.714C237.682 235.061 238.094 235.337 238.548 235.525C239.002 235.714 239.489 235.811 239.98 235.811H269.895C270.386 235.811 270.873 235.714 271.327 235.525C271.781 235.337 272.193 235.061 272.54 234.714C272.887 234.366 273.163 233.953 273.35 233.499C273.538 233.045 273.634 232.558 273.634 232.067V225.294C273.634 223.425 274.376 221.632 275.698 220.311C277.019 218.989 278.812 218.246 280.681 218.246H288.372C289.194 218.247 289.986 218.554 290.593 219.107C291.201 219.66 291.581 220.419 291.66 221.237C292.96 234.609 300.13 289.144 331.939 308.872C332.478 309.206 332.923 309.672 333.232 310.227C333.541 310.781 333.703 311.405 333.703 312.039Z" fill="#C64B42"/>
<path d="M254.11 314.306C272.603 314.306 287.594 299.315 287.594 280.822C287.594 262.329 272.603 247.338 254.11 247.338C235.617 247.338 220.626 262.329 220.626 280.822C220.626 299.315 235.617 314.306 254.11 314.306Z" fill="white"/>
<path d="M267.281 280.819C267.282 283.424 266.509 285.971 265.062 288.137C263.615 290.303 261.558 291.992 259.151 292.989C256.744 293.986 254.096 294.247 251.541 293.738C248.986 293.23 246.639 291.976 244.797 290.134C242.955 288.292 241.701 285.945 241.192 283.39C240.684 280.835 240.945 278.186 241.942 275.78C242.939 273.373 244.628 271.316 246.794 269.869C248.96 268.422 251.506 267.649 254.111 267.649C255.842 267.647 257.555 267.986 259.154 268.647C260.753 269.308 262.206 270.278 263.429 271.502C264.652 272.725 265.622 274.178 266.284 275.777C266.945 277.376 267.284 279.089 267.281 280.819V280.819Z" fill="#E4E4E4"/>
<path d="M237.643 280.548C237.643 281.797 237.272 283.017 236.579 284.056C235.885 285.094 234.899 285.903 233.745 286.381C232.592 286.859 231.323 286.984 230.098 286.74C228.873 286.496 227.749 285.895 226.866 285.012C225.983 284.129 225.381 283.005 225.138 281.78C224.894 280.555 225.019 279.286 225.497 278.132C225.975 276.979 226.784 275.993 227.822 275.299C228.86 274.606 230.081 274.235 231.33 274.235C233.004 274.235 234.61 274.9 235.794 276.084C236.977 277.268 237.643 278.874 237.643 280.548V280.548Z" fill="#E4E4E4"/>
<path d="M283.202 280.548C283.202 281.797 282.832 283.017 282.138 284.056C281.445 285.094 280.459 285.903 279.305 286.381C278.151 286.859 276.882 286.984 275.658 286.74C274.433 286.496 273.308 285.895 272.425 285.012C271.542 284.129 270.941 283.005 270.697 281.78C270.454 280.555 270.579 279.286 271.057 278.132C271.535 276.979 272.344 275.993 273.382 275.299C274.42 274.606 275.641 274.235 276.889 274.235C278.563 274.235 280.169 274.9 281.353 276.084C282.537 277.268 283.202 278.874 283.202 280.548V280.548Z" fill="#E4E4E4"/>
<path d="M254.112 297.015C255.36 297.014 256.581 297.385 257.619 298.078C258.658 298.772 259.467 299.758 259.945 300.911C260.423 302.065 260.548 303.334 260.305 304.559C260.061 305.783 259.46 306.908 258.577 307.791C257.694 308.674 256.569 309.276 255.345 309.519C254.12 309.763 252.851 309.638 251.697 309.16C250.544 308.682 249.558 307.873 248.864 306.835C248.17 305.797 247.8 304.576 247.8 303.328C247.8 301.654 248.465 300.048 249.649 298.864C250.832 297.68 252.438 297.015 254.112 297.015V297.015Z" fill="#E4E4E4"/>
<path d="M254.112 251.455C255.36 251.455 256.581 251.825 257.619 252.519C258.658 253.212 259.467 254.198 259.945 255.352C260.423 256.505 260.548 257.774 260.305 258.999C260.061 260.224 259.46 261.349 258.577 262.232C257.694 263.115 256.569 263.716 255.345 263.96C254.12 264.203 252.851 264.078 251.697 263.601C250.544 263.123 249.558 262.314 248.864 261.275C248.17 260.237 247.8 259.017 247.8 257.768C247.8 256.094 248.465 254.488 249.648 253.304C250.832 252.121 252.438 251.455 254.112 251.455V251.455Z" fill="#E4E4E4"/>
<path d="M265.753 292.192C266.636 291.309 267.761 290.708 268.986 290.464C270.21 290.22 271.48 290.345 272.633 290.823C273.787 291.301 274.773 292.11 275.467 293.148C276.161 294.187 276.531 295.407 276.531 296.656C276.531 297.904 276.161 299.125 275.467 300.163C274.773 301.201 273.787 302.011 272.633 302.488C271.48 302.966 270.21 303.091 268.986 302.847C267.761 302.604 266.636 302.002 265.753 301.119C264.57 299.935 263.905 298.33 263.905 296.656C263.905 294.982 264.57 293.376 265.753 292.192V292.192Z" fill="#E4E4E4"/>
<path d="M233.539 259.976C234.421 259.093 235.546 258.492 236.771 258.248C237.995 258.005 239.265 258.13 240.418 258.608C241.572 259.085 242.558 259.894 243.252 260.933C243.945 261.971 244.315 263.191 244.315 264.44C244.315 265.689 243.945 266.909 243.252 267.947C242.558 268.985 241.572 269.795 240.418 270.272C239.265 270.75 237.995 270.875 236.771 270.632C235.546 270.388 234.421 269.787 233.539 268.904C232.952 268.318 232.487 267.622 232.17 266.856C231.853 266.09 231.689 265.269 231.689 264.44C231.689 263.611 231.853 262.79 232.17 262.024C232.487 261.258 232.952 260.562 233.539 259.976V259.976Z" fill="#E4E4E4"/>
<path d="M265.754 268.904C264.871 268.021 264.27 266.896 264.027 265.672C263.783 264.447 263.908 263.178 264.386 262.024C264.864 260.871 265.673 259.885 266.711 259.191C267.749 258.497 268.97 258.127 270.218 258.127C271.467 258.127 272.687 258.497 273.726 259.191C274.764 259.885 275.573 260.871 276.051 262.024C276.529 263.178 276.654 264.447 276.41 265.672C276.166 266.896 275.565 268.021 274.682 268.904C273.498 270.088 271.893 270.753 270.218 270.753C268.544 270.753 266.938 270.088 265.754 268.904Z" fill="#E4E4E4"/>
<path d="M233.539 301.119C232.656 300.236 232.055 299.111 231.812 297.887C231.568 296.663 231.693 295.393 232.171 294.24C232.649 293.087 233.458 292.101 234.496 291.407C235.534 290.714 236.754 290.344 238.002 290.344C239.251 290.344 240.471 290.714 241.509 291.407C242.547 292.101 243.356 293.087 243.834 294.24C244.312 295.393 244.437 296.663 244.193 297.887C243.95 299.111 243.349 300.236 242.466 301.119C241.88 301.705 241.184 302.17 240.418 302.488C239.652 302.805 238.831 302.968 238.002 302.968C237.173 302.968 236.353 302.805 235.587 302.488C234.821 302.17 234.125 301.705 233.539 301.119V301.119Z" fill="#E4E4E4"/>
<path d="M333.703 324.735V335.813C333.703 336.305 333.607 336.792 333.418 337.246C333.23 337.701 332.955 338.113 332.607 338.461C332.259 338.809 331.846 339.084 331.392 339.272C330.938 339.46 330.451 339.557 329.959 339.556H179.912C179.42 339.557 178.933 339.46 178.479 339.272C178.025 339.084 177.612 338.809 177.264 338.461C176.916 338.113 176.641 337.701 176.452 337.246C176.264 336.792 176.168 336.305 176.168 335.813V324.735H333.703Z" fill="#DD6E5C"/>
<path opacity="0.41" d="M260.802 292.169C259.266 293.075 257.563 293.66 255.794 293.888C254.026 294.116 252.229 293.983 250.514 293.497C248.798 293.01 247.199 292.181 245.814 291.058C244.429 289.935 243.286 288.543 242.454 286.966C241.623 285.388 241.12 283.658 240.977 281.881C240.834 280.104 241.053 278.316 241.621 276.625C242.19 274.935 243.095 273.378 244.283 272.048C245.471 270.718 246.917 269.643 248.532 268.889L260.802 292.169Z" fill="white"/>
<path d="M125.15 149.108C139.75 149.108 151.595 157.987 151.595 168.941C151.595 174.772 148.24 180.014 142.895 183.641C142.795 185.292 142.548 186.973 142.484 187.767C142.305 189.979 141.966 192.175 141.47 194.337C141.435 194.492 141.354 194.632 141.239 194.74C141.123 194.848 140.978 194.919 140.822 194.944C140.666 194.969 140.506 194.947 140.362 194.88C140.219 194.813 140.099 194.705 140.017 194.569C138.501 192.066 136.847 189.649 135.063 187.329C131.846 188.295 128.505 188.781 125.146 188.772C110.541 188.772 98.7021 179.893 98.7021 168.939C98.7021 157.985 110.545 149.108 125.15 149.108Z" fill="white"/>
<path d="M133.501 168.594C133.501 169.465 133.76 170.317 134.244 171.041C134.729 171.766 135.417 172.33 136.222 172.663C137.027 172.997 137.913 173.084 138.768 172.914C139.623 172.744 140.408 172.324 141.024 171.708C141.64 171.092 142.06 170.307 142.23 169.452C142.4 168.598 142.313 167.712 141.98 166.907C141.647 166.101 141.083 165.413 140.358 164.929C139.634 164.444 138.782 164.185 137.911 164.185C137.332 164.184 136.758 164.298 136.223 164.52C135.688 164.741 135.202 165.066 134.792 165.475C134.383 165.885 134.058 166.371 133.836 166.906C133.615 167.441 133.501 168.014 133.501 168.594V168.594Z" fill="#C3B7FC"/>
<path d="M119.583 168.594C119.583 169.465 119.841 170.317 120.326 171.042C120.81 171.767 121.498 172.331 122.304 172.665C123.109 172.999 123.995 173.086 124.85 172.916C125.705 172.746 126.49 172.326 127.106 171.71C127.723 171.093 128.142 170.308 128.312 169.453C128.482 168.598 128.395 167.712 128.062 166.907C127.728 166.102 127.163 165.413 126.438 164.929C125.714 164.445 124.862 164.187 123.99 164.187C122.821 164.187 121.7 164.651 120.874 165.478C120.048 166.304 119.583 167.425 119.583 168.594V168.594Z" fill="#C3B7FC"/>
<path d="M105.665 168.594C105.665 169.465 105.924 170.317 106.408 171.042C106.892 171.767 107.58 172.331 108.386 172.665C109.191 172.999 110.077 173.086 110.932 172.916C111.787 172.746 112.572 172.326 113.188 171.71C113.805 171.093 114.224 170.308 114.394 169.453C114.564 168.598 114.477 167.712 114.144 166.907C113.81 166.102 113.245 165.413 112.52 164.929C111.796 164.445 110.944 164.187 110.072 164.187C108.903 164.187 107.783 164.651 106.956 165.478C106.13 166.304 105.665 167.425 105.665 168.594V168.594Z" fill="#C3B7FC"/>
<path d="M25.7457 242.459C29.2057 244.267 32.1077 247.144 34.9717 249.759C37.9237 252.461 40.8037 255.238 43.6117 258.09C49.2337 263.79 54.5567 269.783 59.6447 275.965C69.7703 288.434 79.2086 301.445 87.9177 314.94C92.8617 322.491 97.6577 330.14 102.405 337.812C103.317 339.287 100.995 340.655 100.084 339.179C83.4397 312.201 66.0457 285.437 44.1637 262.348C41.0817 259.096 37.911 255.929 34.6517 252.848C31.4187 249.801 27.6957 247.032 24.9267 243.548C24.8258 243.427 24.7688 243.275 24.7649 243.118C24.761 242.96 24.8104 242.806 24.9052 242.68C25 242.554 25.1346 242.463 25.2871 242.423C25.4397 242.383 25.6013 242.396 25.7457 242.459Z" fill="#E08675"/>
<path d="M13.4895 235.497C15.1075 233.148 19.0755 233.662 21.5295 234.171C27.3205 235.371 32.3725 239.288 36.5065 243.589C39.5375 246.764 42.2657 250.214 44.6555 253.896C47.1977 257.499 49.1045 261.51 50.2935 265.756C50.3262 265.859 50.3307 265.968 50.3068 266.073C50.2829 266.179 50.2313 266.276 50.1574 266.354C50.0835 266.433 49.9899 266.49 49.8864 266.52C49.7829 266.551 49.6732 266.553 49.5685 266.527C49.4139 266.662 49.2275 266.757 49.0266 266.801C48.8258 266.846 48.617 266.839 48.4195 266.781C41.913 265.092 35.7198 262.369 30.0765 258.717C27.2117 256.859 24.4968 254.78 21.9565 252.498C19.1802 250.178 16.7621 247.461 14.7805 244.434C13.3035 241.985 11.7215 238.065 13.4895 235.497Z" fill="#E08675"/>
<path d="M54.1525 267.062C52.9615 263.538 51.8885 259.988 51.0105 256.408C50.1402 252.899 49.4665 249.345 48.9925 245.762C48.5925 242.662 48.4505 239.362 49.9575 236.91C50.6096 235.795 51.6508 234.962 52.8807 234.569C54.1107 234.176 55.4424 234.253 56.6195 234.783C59.5195 235.895 61.7195 238.683 63.2965 241.527C65.5081 245.898 66.8074 250.674 67.1153 255.564C67.4232 260.453 66.7333 265.354 65.0875 269.969C64.5407 271.437 63.8366 272.843 62.9875 274.16C62.2998 275.215 61.4613 276.164 60.4985 276.976C60.3736 277.157 60.2003 277.299 59.9985 277.386L59.8565 277.501C59.8164 277.531 59.7707 277.554 59.7219 277.567C59.673 277.58 59.6222 277.583 59.5721 277.577C59.522 277.57 59.4738 277.553 59.4301 277.528C59.3864 277.503 59.3481 277.469 59.3175 277.429C59.0482 277.344 58.8088 277.184 58.6275 276.968C56.2345 274.295 55.2655 270.357 54.1525 267.062Z" fill="#E08675"/>
<path d="M69.2459 282.557C69.2679 278.945 69.4059 275.348 69.7329 271.783C70.0444 268.288 70.5505 264.813 71.2489 261.373C71.8619 258.396 72.7769 255.327 74.9359 253.552C75.8872 252.736 77.1067 252.301 78.3598 252.329C79.6129 252.358 80.8111 252.849 81.7239 253.708C84.0359 255.647 85.1719 258.898 85.7239 262.008C86.3701 266.722 86.0508 271.517 84.7855 276.103C83.5203 280.689 81.3354 284.969 78.3639 288.684C77.3963 289.859 76.3042 290.926 75.1069 291.865C74.1423 292.618 73.0721 293.224 71.9309 293.665C71.761 293.792 71.559 293.868 71.3479 293.885L71.1809 293.946C71.1344 293.962 71.0852 293.968 71.0362 293.965C70.9872 293.961 70.9394 293.948 70.8955 293.926C70.8517 293.904 70.8126 293.874 70.7805 293.836C70.7485 293.799 70.7242 293.756 70.7089 293.709C70.4884 293.547 70.3191 293.324 70.2209 293.068C68.8679 289.855 69.2259 285.934 69.2459 282.557Z" fill="#E08675"/>
<path d="M82.8118 300.791C83.2048 297.201 83.7118 293.637 84.4048 290.124C85.0742 286.678 85.9355 283.273 86.9848 279.924C87.9008 277.024 89.1268 274.067 91.4578 272.524C92.4878 271.81 93.7456 271.502 94.989 271.659C96.2324 271.817 97.3735 272.429 98.1928 273.378C100.293 275.545 101.093 278.896 101.312 282.049C101.47 286.803 100.659 291.539 98.9297 295.97C97.2001 300.401 94.5876 304.434 91.2508 307.824C90.1669 308.892 88.971 309.841 87.6838 310.653C86.646 311.3 85.5191 311.793 84.3388 312.114C84.1572 312.221 83.9495 312.275 83.7388 312.272C83.6808 312.286 83.6238 312.302 83.5658 312.315C83.5179 312.326 83.4683 312.327 83.4199 312.318C83.3715 312.31 83.3253 312.292 83.2839 312.266C83.2425 312.239 83.2068 312.205 83.1788 312.165C83.1508 312.124 83.1311 312.079 83.1208 312.031C82.9182 311.847 82.7727 311.608 82.7018 311.344C81.6818 308.012 82.4408 304.148 82.8118 300.791Z" fill="#E08675"/>
<path d="M95.7987 318.693C96.3987 315.168 97.1147 311.675 98.0137 308.242C98.887 304.871 99.9521 301.553 101.204 298.304C102.296 295.49 103.704 292.631 106.161 291.229C107.247 290.575 108.534 290.335 109.783 290.554C111.033 290.772 112.161 291.435 112.961 292.42C114.973 294.669 115.595 298.02 115.646 301.144C115.61 307.376 113.758 313.461 110.316 318.656C108.586 321.43 106.452 323.932 103.985 326.077C102.82 327.079 101.552 327.954 100.203 328.687C99.1092 329.274 97.9373 329.701 96.7227 329.956C96.5308 330.053 96.3162 330.096 96.1017 330.081L95.9237 330.115C95.8262 330.133 95.7256 330.111 95.644 330.055C95.5623 329.999 95.5062 329.912 95.4877 329.815C95.2934 329.624 95.1589 329.381 95.1007 329.115C94.2517 325.765 95.2377 321.985 95.7987 318.693Z" fill="#E08675"/>
<path d="M85.6976 325.878C82.1426 325.478 78.5886 325.203 75.0406 325.119C71.56 325.028 68.0771 325.135 64.6086 325.439C61.6016 325.712 58.4646 326.278 56.4386 328.249C55.5108 329.113 54.9259 330.283 54.7914 331.543C54.6569 332.804 54.9819 334.07 55.7066 335.11C57.3116 337.665 60.3596 339.188 63.3496 340.1C69.3475 341.787 75.7071 341.688 81.6496 339.815C84.7939 338.919 87.7871 337.559 90.5306 335.78C91.8152 334.938 93.0062 333.961 94.0836 332.866C94.9499 331.978 95.6844 330.97 96.2646 329.873C96.4109 329.715 96.5118 329.521 96.5566 329.31C96.5826 329.256 96.6106 329.204 96.6376 329.149C96.6806 329.06 96.6868 328.958 96.6548 328.864C96.6228 328.771 96.5552 328.693 96.4666 328.649C96.3364 328.41 96.1395 328.213 95.8996 328.083C92.9216 326.344 89.0206 326.249 85.6976 325.878Z" fill="#E08675"/>
<path d="M73.2478 307.738C69.6478 307.307 66.0538 306.999 62.4568 306.892C58.9248 306.778 55.3891 306.87 51.8678 307.167C48.8118 307.434 45.6168 308.004 43.5148 310.038C42.5527 310.929 41.9353 312.131 41.7707 313.432C41.6061 314.733 41.905 316.05 42.6148 317.153C44.1818 319.813 47.2378 321.41 50.2488 322.374C56.3213 324.155 62.787 324.086 68.8198 322.174C72.042 321.255 75.1091 319.86 77.9198 318.036C79.2457 317.168 80.4764 316.162 81.5918 315.036C82.4935 314.116 83.262 313.075 83.8748 311.942C84.0275 311.779 84.1341 311.578 84.1838 311.36C84.2128 311.304 84.2418 311.25 84.2708 311.193C84.3182 311.102 84.3277 310.996 84.2974 310.898C84.267 310.8 84.1993 310.718 84.1088 310.67C83.9844 310.422 83.7891 310.217 83.5478 310.08C80.5648 308.261 76.6118 308.141 73.2478 307.738Z" fill="#E08675"/>
<path d="M15.2632 274.284C15.1956 272.813 15.5399 271.352 16.2575 270.066C16.9752 268.779 18.0376 267.719 19.3252 267.003C24.3832 263.821 31.3542 265.194 36.8352 266.398C42.9699 267.741 48.8372 270.099 54.1952 273.374C55.4952 274.174 56.7852 274.932 58.1352 275.632C58.5452 275.844 58.9932 275.556 59.3432 275.996C61.7642 279.049 49.7052 282.513 47.6162 283.105C41.5272 284.829 34.8222 285.725 28.6162 284.377C23.2832 283.216 15.8182 280.742 15.2632 274.284Z" fill="#E08675"/>
<path d="M29.7739 299.124C29.4177 297.742 29.4511 296.289 29.8705 294.926C30.2899 293.562 31.0789 292.341 32.1499 291.399C36.2859 287.328 43.1379 287.149 48.5499 287.124C54.5952 287.091 60.603 288.074 66.3229 290.031C67.7089 290.507 69.0769 290.952 70.4909 291.326C70.9199 291.44 71.2839 291.073 71.7029 291.414C74.5969 293.781 63.9129 299.599 62.0599 300.598C56.6599 303.512 50.5139 305.775 44.3869 305.818C39.1259 305.855 31.5899 305.102 29.7739 299.124Z" fill="#E08675"/>
<path d="M72.1993 179.161C74.7683 181.645 76.5703 184.923 78.4063 187.966C80.2983 191.1 82.107 194.284 83.8323 197.52C87.2903 203.983 90.4103 210.62 93.2753 217.368C98.9334 230.939 103.847 244.808 107.995 258.913C110.378 266.824 112.608 274.779 114.786 282.748C114.852 283.06 114.794 283.386 114.625 283.656C114.455 283.926 114.188 284.121 113.879 284.198C113.569 284.276 113.242 284.231 112.965 284.072C112.689 283.914 112.484 283.654 112.394 283.348C104.774 255.348 96.4403 227.348 83.2133 201.401C81.35 197.747 79.387 194.147 77.3243 190.601C75.2753 187.087 72.7243 183.691 71.1953 179.918C71.1232 179.784 71.1013 179.629 71.1338 179.481C71.1663 179.332 71.2509 179.2 71.3722 179.109C71.4936 179.017 71.6438 178.972 71.7955 178.982C71.9472 178.991 72.0905 179.055 72.1993 179.161V179.161Z" fill="#DFA331"/>
<path d="M63.2443 169.874C65.2733 168.23 68.6233 169.71 70.6443 170.793C75.4173 173.349 78.8373 178.093 81.3523 182.943C83.1901 186.516 84.6909 190.252 85.8353 194.104C87.1329 197.926 87.7674 201.942 87.7113 205.978C87.7132 206.076 87.6887 206.174 87.6404 206.26C87.5922 206.346 87.5218 206.417 87.4367 206.467C87.3515 206.517 87.2546 206.543 87.1559 206.543C87.0573 206.543 86.9604 206.517 86.8753 206.467C86.7042 206.546 86.5158 206.58 86.3277 206.567C86.1396 206.554 85.9579 206.494 85.7993 206.392C80.5253 203.222 75.7941 199.227 71.7863 194.559C69.7523 192.185 67.9077 189.655 66.2693 186.993C64.4321 184.237 63.0134 181.225 62.0593 178.054C61.3983 175.523 61.0263 171.67 63.2443 169.874Z" fill="#DFA331"/>
<path d="M90.7621 208.125C90.6291 204.725 90.6081 201.325 90.7621 197.956C90.9072 194.651 91.2367 191.356 91.7491 188.088C92.2001 185.258 92.9321 182.328 94.8911 180.566C95.7525 179.757 96.8826 179.295 98.064 179.269C99.2455 179.243 100.395 179.654 101.291 180.425C103.55 182.154 104.758 185.168 105.405 188.077C106.213 192.488 106.116 197.017 105.119 201.39C104.122 205.762 102.246 209.886 99.6051 213.511C98.7433 214.658 97.7599 215.709 96.6721 216.645C95.7952 217.393 94.813 218.009 93.7571 218.472C93.6022 218.598 93.4152 218.678 93.2171 218.704L93.0621 218.768C93.0192 218.785 92.9733 218.793 92.9272 218.792C92.881 218.791 92.8356 218.781 92.7933 218.762C92.7511 218.744 92.713 218.717 92.6812 218.684C92.6494 218.65 92.6245 218.611 92.6081 218.568C92.3932 218.424 92.2242 218.222 92.1211 217.985C90.7111 215.014 90.8851 211.306 90.7621 208.125Z" fill="#DFA331"/>
<path d="M99.9959 225.641C100.952 222.476 102.006 219.354 103.216 216.308C104.395 213.32 105.74 210.4 107.245 207.562C108.555 205.107 110.154 202.65 112.509 201.652C113.556 201.182 114.74 201.116 115.833 201.467C116.926 201.817 117.85 202.56 118.428 203.552C119.955 205.852 120.11 209.002 119.784 211.877C119.129 216.181 117.606 220.307 115.308 224.005C113.009 227.702 109.982 230.894 106.411 233.385C105.257 234.165 104.022 234.819 102.727 235.334C101.685 235.743 100.589 235.997 99.4729 236.088C99.2909 236.155 99.0938 236.169 98.9039 236.13L98.7409 236.14C98.6961 236.141 98.6514 236.134 98.6094 236.118C98.5674 236.103 98.529 236.079 98.4962 236.048C98.4635 236.017 98.4372 235.98 98.4188 235.94C98.4004 235.899 98.3902 235.855 98.3889 235.81C98.2373 235.61 98.1463 235.371 98.1269 235.121C97.7729 231.951 99.1029 228.601 99.9959 225.641Z" fill="#DFA331"/>
<path d="M107.178 245.163C108.454 242.112 109.824 239.115 111.342 236.211C112.822 233.36 114.46 230.594 116.249 227.926C117.805 225.619 119.649 223.339 122.094 222.589C123.184 222.229 124.368 222.285 125.418 222.746C126.469 223.206 127.313 224.039 127.786 225.084C129.068 227.53 128.898 230.684 128.277 233.505C127.184 237.72 125.245 241.669 122.578 245.111C119.911 248.552 116.572 251.416 112.763 253.526C111.535 254.183 110.24 254.706 108.899 255.084C107.82 255.384 106.703 255.524 105.584 255.5C105.396 255.548 105.199 255.542 105.014 255.483L104.851 255.476C104.806 255.473 104.762 255.461 104.722 255.442C104.682 255.422 104.646 255.394 104.616 255.36C104.587 255.326 104.564 255.286 104.55 255.244C104.536 255.201 104.531 255.156 104.534 255.111C104.404 254.897 104.338 254.65 104.344 254.399C104.317 251.21 105.985 248.015 107.178 245.163Z" fill="#DFA331"/>
<path d="M113.943 264.247C115.384 261.307 116.917 258.426 118.596 255.647C120.237 252.914 122.032 250.276 123.972 247.747C125.66 245.559 127.64 243.415 130.158 242.82C131.281 242.528 132.472 242.651 133.511 243.167C134.551 243.683 135.369 244.556 135.815 245.627C136.999 248.127 136.677 251.227 135.915 253.982C134.269 259.444 131.065 264.307 126.696 267.975C124.459 269.963 121.937 271.606 119.215 272.85C117.932 273.428 116.591 273.867 115.215 274.16C114.104 274.393 112.964 274.464 111.832 274.373C111.639 274.408 111.439 274.391 111.254 274.322L111.089 274.305C110.999 274.294 110.917 274.249 110.861 274.178C110.805 274.107 110.779 274.016 110.789 273.926C110.667 273.708 110.612 273.459 110.63 273.21C110.751 270.054 112.596 266.995 113.943 264.247Z" fill="#DFA331"/>
<path d="M103.211 267.937C100.193 266.667 97.1453 265.502 94.0523 264.508C91.0205 263.525 87.9352 262.716 84.8113 262.084C82.1013 261.544 79.2003 261.228 76.9113 262.434C75.873 262.952 75.0564 263.827 74.6118 264.899C74.1672 265.97 74.1244 267.167 74.4913 268.267C75.2373 270.926 77.5193 273.053 79.9073 274.629C84.7367 277.665 90.3468 279.227 96.0503 279.122C99.0432 279.15 102.024 278.733 104.893 277.882C106.239 277.476 107.538 276.927 108.767 276.244C109.758 275.689 110.664 274.995 111.457 274.182C111.626 274.081 111.764 273.937 111.857 273.764L111.971 273.643C112.033 273.576 112.065 273.487 112.062 273.396C112.058 273.305 112.018 273.219 111.951 273.157C111.899 272.913 111.777 272.689 111.6 272.513C109.434 270.218 106.033 269.124 103.211 267.937Z" fill="#DFA331"/>
<path d="M96.9844 248.785C93.9394 247.474 90.8594 246.271 87.7294 245.245C84.6582 244.23 81.5306 243.396 78.3624 242.745C75.6094 242.187 72.6564 241.86 70.2844 243.101C69.2082 243.633 68.3539 244.527 67.8713 245.627C67.3887 246.726 67.3087 247.96 67.6454 249.113C68.3324 251.854 70.6014 254.049 72.9944 255.675C77.8638 258.813 83.5582 260.429 89.3504 260.316C92.4186 260.345 95.4739 259.916 98.4154 259.043C99.8042 258.623 101.145 258.058 102.415 257.357C103.445 256.783 104.39 256.068 105.221 255.233C105.398 255.128 105.543 254.98 105.644 254.802C105.683 254.76 105.723 254.72 105.763 254.678C105.828 254.61 105.863 254.52 105.862 254.426C105.861 254.333 105.823 254.244 105.756 254.178C105.712 253.928 105.594 253.697 105.417 253.514C103.272 251.14 99.8314 250.01 96.9844 248.785Z" fill="#DFA331"/>
<path d="M54.7493 204.385C55.0713 203.075 55.7524 201.882 56.7157 200.939C57.6791 199.996 58.8866 199.34 60.2023 199.046C65.4683 197.563 71.2323 200.576 75.7323 203.053C80.7701 205.822 85.3101 209.412 89.1653 213.677C90.1003 214.714 91.0353 215.716 92.0393 216.677C92.3393 216.969 92.8113 216.832 93.0053 217.309C94.3393 220.617 82.8543 220.533 80.8673 220.509C75.0743 220.444 68.9553 219.493 63.8543 216.701C59.4733 214.307 53.5613 210.201 54.7493 204.385Z" fill="#DFA331"/>
<path d="M61.0479 229.955C61.0937 228.649 61.5 227.382 62.2217 226.294C62.9434 225.205 63.9524 224.338 65.1368 223.788C69.8228 221.288 75.8848 222.905 80.6368 224.288C85.9529 225.825 90.9728 228.245 95.4868 231.446C96.5798 232.223 97.6659 232.968 98.8109 233.663C99.1579 233.874 99.5729 233.647 99.8519 234.055C101.78 236.883 90.8919 239.221 89.0059 239.619C83.5059 240.777 77.5278 241.171 72.1378 239.619C67.5108 238.285 61.0939 235.673 61.0479 229.955Z" fill="#DFA331"/>
<path d="M370.26 336.006C369.036 337.613 367.481 338.937 365.7 339.889C359.07 343.814 351.824 346.591 344.269 348.101C343.622 348.255 342.96 348.393 342.298 348.501C339.987 348.948 337.645 349.287 335.298 349.534C334.728 349.61 334.143 349.657 333.573 349.703C332.248 349.826 330.938 349.934 329.613 349.995C329.089 350.026 328.581 350.042 328.073 350.057C325.607 350.15 323.142 350.165 320.693 350.103C320.261 350.103 319.845 350.088 319.43 350.073C319.326 350.075 319.223 350.07 319.121 350.057C317.843 350.026 316.549 349.965 315.221 349.872C314.621 349.857 314.021 349.811 313.403 349.764C311.492 349.626 309.551 349.456 307.594 349.225C306.146 349.056 304.682 348.84 303.234 348.594C302.002 348.409 300.769 348.177 299.552 347.9C289.477 345.79 279.894 341.707 273.531 333.819C272.15 332.188 271.329 330.158 271.189 328.026C271.18 327.465 271.371 326.919 271.728 326.486C272.283 325.823 273.328 325.499 275.041 325.746C282.759 326.886 290.015 330.768 296.995 334.046C297.184 334.137 297.4 334.158 297.604 334.105C297.807 334.052 297.986 333.929 298.107 333.758C298.229 333.586 298.286 333.377 298.268 333.168C298.251 332.958 298.159 332.761 298.011 332.613C291.14 325.68 285.178 317.977 283.36 308.394C283.193 307.677 283.157 306.936 283.252 306.207C283.337 305.622 283.62 305.084 284.052 304.682C284.144 304.62 284.237 304.543 284.33 304.466C284.999 303.987 285.823 303.773 286.641 303.866C288.316 304.149 289.855 304.965 291.031 306.192C296.824 311.231 301.554 318.192 306.053 324.757C306.187 324.956 306.387 325.103 306.617 325.171C306.848 325.239 307.095 325.225 307.317 325.13C307.538 325.035 307.719 324.866 307.828 324.651C307.938 324.437 307.969 324.191 307.917 323.957C306.286 316.864 305.072 309.683 304.281 302.449C303.911 298.629 303.896 294.392 306.299 291.403C306.405 291.264 306.524 291.135 306.653 291.018C306.854 290.81 307.111 290.666 307.393 290.602C307.654 290.56 307.923 290.597 308.163 290.71C308.474 290.861 308.764 291.053 309.026 291.28C312.426 294.207 314.526 298.644 315.836 302.942C317.669 308.982 320.18 315.976 321.552 322.555C321.573 322.647 321.627 322.729 321.704 322.784C321.782 322.84 321.876 322.865 321.971 322.856C322.065 322.846 322.153 322.802 322.218 322.733C322.282 322.663 322.319 322.573 322.322 322.478C322.538 312.202 324.371 301.51 329.717 292.944C330.057 292.383 330.527 291.912 331.087 291.571C331.648 291.231 332.282 291.03 332.937 290.987C333.184 290.97 333.432 290.985 333.676 291.033C334.214 291.114 334.717 291.35 335.124 291.711C336.573 292.911 337.035 295.455 337.05 297.535C337.098 306.472 336.444 315.4 335.094 324.235C335.064 324.414 335.099 324.597 335.192 324.753C335.285 324.909 335.43 325.027 335.601 325.086C335.773 325.145 335.96 325.142 336.129 325.076C336.298 325.01 336.439 324.887 336.526 324.728C340.64 317.01 345.632 308.289 352.596 304.238C354.552 303.098 356.971 302.158 358.989 303.791C359.232 303.989 359.449 304.217 359.636 304.469C360.003 304.933 360.271 305.467 360.422 306.04C360.438 306.057 360.449 306.078 360.453 306.102C361.1 308.475 360.268 310.77 359.343 312.926C356.005 320.678 351.335 327.786 345.543 333.926C345.391 334.083 345.3 334.289 345.285 334.507C345.27 334.725 345.333 334.941 345.462 335.118C345.59 335.295 345.777 335.42 345.989 335.473C346.202 335.525 346.425 335.502 346.622 335.406C350.628 333.48 354.51 331.615 358.67 329.598C360.659 328.462 362.852 327.729 365.125 327.44C366.213 327.322 367.313 327.5 368.308 327.956C369.304 328.411 370.157 329.128 370.779 330.029C370.836 330.112 370.888 330.2 370.933 330.291C371.109 330.646 371.233 331.024 371.303 331.415C371.571 333.023 371.196 334.671 370.26 336.006V336.006Z" fill="#ECBF4C"/>
<path d="M320.697 350.103C320.265 350.103 319.849 350.088 319.434 350.073C319.331 350.075 319.228 350.07 319.125 350.057C315.489 330.275 311.334 310.596 306.661 291.02C306.862 290.812 307.119 290.668 307.401 290.604C307.663 290.562 307.931 290.599 308.171 290.712C312.886 310.401 317.061 330.198 320.697 350.103Z" fill="#E58F31"/>
<path d="M335.132 291.712C332.874 302.656 331.436 313.754 330.832 324.912C330.432 333.277 330.027 341.637 329.615 349.993C329.091 350.024 328.583 350.04 328.075 350.055C328.491 341.181 328.923 332.312 329.369 323.448C329.999 312.551 331.441 301.716 333.682 291.033C334.221 291.115 334.725 291.35 335.132 291.712Z" fill="#E58F31"/>
<path d="M360.43 306.041C354.992 313.898 349.445 321.709 344.484 329.875C340.796 336.116 337.721 342.7 335.302 349.534C334.732 349.61 334.147 349.657 333.577 349.703C335.915 342.986 338.876 336.502 342.42 330.337C347.689 321.432 353.759 312.989 359.644 304.47C360.011 304.934 360.279 305.469 360.43 306.041V306.041Z" fill="#E58F31"/>
<path d="M315.229 349.872C314.629 349.857 314.029 349.811 313.411 349.764C304.845 334.327 293.474 320.631 283.26 306.211C283.345 305.626 283.628 305.088 284.06 304.686C294.612 319.645 306.462 333.785 315.229 349.872Z" fill="#E58F31"/>
<path d="M303.242 348.593C302.01 348.408 300.777 348.176 299.56 347.899C290.039 341.383 280.272 335.22 271.197 328.025C271.188 327.464 271.379 326.919 271.736 326.485C281.781 334.526 292.704 341.259 303.242 348.593Z" fill="#E58F31"/>
<path d="M371.312 331.414C369.032 332.431 366.674 333.356 364.579 334.465C360.712 336.499 356.958 338.723 353.317 341.136C350.054 343.116 347.021 345.452 344.273 348.1C343.626 348.254 342.964 348.392 342.302 348.5C344.613 345.771 347.281 343.367 350.236 341.352C354.209 338.608 358.329 336.083 362.577 333.787C365.134 332.4 368.046 331.307 370.788 330.028C370.845 330.112 370.897 330.199 370.942 330.29C371.118 330.646 371.242 331.024 371.312 331.414V331.414Z" fill="#E58F31"/>
<path d="M201.972 307.883C201.717 308.129 201.394 308.291 201.045 308.348C197.382 309.248 193.635 309.758 189.865 309.87C188.49 309.935 187.11 309.97 185.735 309.978C184.441 309.995 183.148 309.999 181.859 309.999C174.413 309.999 166.968 309.987 159.526 309.961L156.236 309.948C155.536 309.948 154.836 309.943 154.136 309.939C149.737 310.058 145.337 309.759 140.995 309.046C140.711 308.991 142.362 292.146 142.517 290.499C143.062 283.845 144.041 277.232 145.449 270.705C146.554 265.313 148.311 260.075 150.679 255.105C153.412 249.738 157.271 245.133 162.979 242.705C163.19 242.615 163.406 242.529 163.622 242.442C168.226 240.591 173.24 239.993 178.151 240.709C179.6 240.941 181.022 241.321 182.394 241.843C191.65 245.392 196.065 254.933 198.186 264.651C201.2 278.425 201.752 292.618 202.235 306.651C202.301 307.08 202.207 307.519 201.972 307.883V307.883Z" fill="#F0C9A1"/>
<path d="M151.965 228.599C150.114 225.899 149.66 222.593 149.197 219.444C147.702 209.293 151.956 198.075 162.722 194.182C168.588 192.061 175.412 191.637 181.272 194C192.488 198.524 194.688 209.819 194.086 220.111C193.874 224.827 192.031 229.323 188.871 232.83C186.395 235.786 182.957 237.776 179.16 238.45C169.197 240.041 158.895 238.706 151.965 228.599Z" fill="#363271"/>
<path d="M179.518 225.219V243.973C179.518 245.745 178.814 247.445 177.561 248.698C176.308 249.952 174.608 250.656 172.835 250.656C171.063 250.656 169.363 249.952 168.11 248.698C166.856 247.445 166.152 245.745 166.152 243.973V225.219H179.518Z" fill="#F0C9A1"/>
<path d="M179.518 228.77V241.709C176.701 242.639 173.754 243.119 170.787 243.132C169.217 243.107 167.658 242.867 166.152 242.42V230.9C166.912 230.544 167.698 230.246 168.502 230.008C172.067 228.924 175.802 228.504 179.518 228.77V228.77Z" fill="#E9B588"/>
<path d="M154.819 218.966C154.819 230.991 161.202 240.739 171.202 240.739C181.202 240.739 189.31 230.991 189.31 218.966C189.31 206.941 181.203 197.194 171.202 197.194C161.201 197.194 154.819 206.941 154.819 218.966Z" fill="#F0C9A1"/>
<path d="M194.774 223.401C195.604 219.927 194.022 216.573 191.243 215.909C188.463 215.246 185.538 217.525 184.709 220.999C183.88 224.473 185.461 227.827 188.241 228.49C191.02 229.153 193.945 226.875 194.774 223.401Z" fill="#F0C9A1"/>
<path d="M149.787 223.401C148.958 219.927 150.539 216.573 153.318 215.91C156.097 215.247 159.018 217.526 159.851 221C160.684 224.474 159.099 227.828 156.32 228.491C153.541 229.154 150.612 226.876 149.787 223.401Z" fill="#F0C9A1"/>
<path d="M179.656 214.362C178.247 214.365 176.879 214.837 175.768 215.704C174.658 216.572 173.868 217.785 173.524 219.151H170.05C169.649 217.599 168.672 216.257 167.316 215.401C165.96 214.544 164.329 214.237 162.755 214.541C161.18 214.845 159.781 215.738 158.843 217.039C157.904 218.339 157.496 219.948 157.703 221.538C157.909 223.128 158.715 224.58 159.954 225.597C161.194 226.614 162.775 227.12 164.374 227.012C165.974 226.904 167.473 226.19 168.565 225.016C169.656 223.841 170.259 222.295 170.25 220.691C170.25 220.633 170.243 220.577 170.241 220.52H173.341C173.341 220.577 173.333 220.633 173.333 220.691C173.333 221.943 173.705 223.167 174.4 224.207C175.095 225.248 176.084 226.059 177.24 226.539C178.397 227.018 179.669 227.143 180.897 226.899C182.125 226.654 183.252 226.052 184.138 225.167C185.023 224.281 185.625 223.154 185.87 221.926C186.114 220.698 185.989 219.426 185.51 218.269C185.031 217.113 184.219 216.124 183.179 215.429C182.138 214.733 180.914 214.362 179.662 214.362H179.656ZM163.919 225.651C162.938 225.651 161.979 225.36 161.164 224.815C160.348 224.27 159.712 223.496 159.337 222.589C158.961 221.683 158.863 220.686 159.055 219.724C159.246 218.761 159.718 217.878 160.412 217.184C161.106 216.49 161.99 216.018 162.952 215.827C163.914 215.635 164.911 215.733 165.817 216.109C166.724 216.484 167.498 217.12 168.043 217.936C168.588 218.751 168.879 219.71 168.879 220.691C168.878 222.006 168.355 223.267 167.425 224.197C166.495 225.127 165.234 225.65 163.919 225.651V225.651ZM179.656 225.651C178.675 225.651 177.716 225.36 176.901 224.815C176.085 224.27 175.45 223.495 175.075 222.589C174.699 221.682 174.601 220.685 174.793 219.723C174.984 218.761 175.457 217.877 176.15 217.184C176.844 216.49 177.728 216.018 178.69 215.827C179.652 215.635 180.649 215.734 181.556 216.109C182.462 216.484 183.237 217.12 183.781 217.936C184.326 218.751 184.617 219.71 184.617 220.691C184.616 222.006 184.093 223.267 183.162 224.197C182.232 225.127 180.971 225.65 179.656 225.651V225.651Z" fill="white"/>
<path d="M156.461 214.901C163.603 213.308 168.535 206.607 170.992 199.714C174.627 205.745 179.938 210.589 186.277 213.656C187.625 214.305 189.537 214.733 190.371 213.491C190.642 213.012 190.775 212.468 190.757 211.918C190.833 208.719 189.972 205.567 188.28 202.851C186.589 200.134 184.141 197.971 181.236 196.628C179.695 195.966 178.077 195.498 176.42 195.237C170.683 194.266 164.487 195.257 159.764 198.654C156.655 200.893 154.389 204.113 153.33 207.796C152.445 210.964 151.562 215.993 156.461 214.901Z" fill="#363271"/>
<path d="M156.126 195.475C156.749 196.796 157.765 197.892 159.034 198.614C160.304 199.336 161.766 199.648 163.219 199.507C165.568 199.207 167.673 197.636 170.042 197.643C172.21 197.649 174.142 198.97 176.247 199.483C177.462 199.778 178.727 199.801 179.951 199.549C181.175 199.298 182.329 198.779 183.329 198.029C184.329 197.279 185.151 196.318 185.735 195.213C186.32 194.108 186.653 192.888 186.71 191.639C186.768 190.391 186.548 189.145 186.067 187.992C185.587 186.838 184.857 185.805 183.93 184.967C183.002 184.128 181.901 183.505 180.705 183.143C179.509 182.78 178.248 182.687 177.011 182.869C174.111 183.297 171.697 184.705 168.68 184.59C166.704 184.515 164.748 183.77 162.768 184.09C157.653 184.917 153.853 190.557 156.126 195.475Z" fill="#363271"/>
<path d="M189.865 251.948V309.872C188.49 309.937 187.11 309.972 185.735 309.98C184.441 309.997 183.148 310.001 181.859 310.001C174.413 310.001 166.969 309.989 159.526 309.963L156.236 309.95V251.95L189.865 251.948Z" fill="white"/>
<path opacity="0.37" d="M188.792 277.668C180.012 281.208 170.272 281.218 160.802 281.108C161.302 270.798 161.845 260.492 162.432 250.188C162.682 250.588 162.942 251.068 163.232 251.648C165.528 256.308 168.549 260.575 172.182 264.288C177.172 269.368 182.992 273.528 188.792 277.668Z" fill="#E4E4E4"/>
<path d="M162.982 242.699C163.032 244.059 162.672 245.749 162.612 246.909C162.552 247.999 162.482 249.099 162.432 250.189C161.842 260.499 161.299 270.806 160.802 281.109C160.642 284.389 160.492 287.659 160.342 290.939C160.052 297.269 159.779 303.609 159.522 309.959C157.732 309.959 155.932 309.949 154.132 309.939C149.734 310.054 145.334 309.756 140.992 309.049C140.702 308.989 142.362 292.149 142.512 290.499C143.057 283.846 144.036 277.235 145.442 270.709C146.549 265.317 148.305 260.079 150.672 255.109C153.412 249.739 157.262 245.129 162.982 242.699Z" fill="#514E92"/>
<path d="M201.972 307.884C201.717 308.129 201.394 308.291 201.045 308.349C196.027 309.516 190.886 310.063 185.735 309.979C185.48 303.628 185.208 297.28 184.92 290.935C184.253 276.255 183.497 261.581 182.652 246.912C182.57 245.484 182.052 243.264 182.394 241.837C191.65 245.386 196.065 254.927 198.186 264.645C201.2 278.419 201.752 292.612 202.235 306.645C202.303 307.076 202.209 307.517 201.972 307.884V307.884Z" fill="#514E92"/>
<path d="M184.706 234.323L183.631 232.993C185.735 231.217 187.424 229.003 188.582 226.505C189.739 224.007 190.336 221.287 190.331 218.534V214.745C190.371 210.479 188.718 206.371 185.734 203.323C182.749 200.274 178.678 198.534 174.412 198.484H169.012C164.771 198.534 160.724 200.263 157.757 203.293C154.79 206.323 153.146 210.406 153.185 214.647V218.531H151.497V214.647C151.454 209.954 153.274 205.436 156.557 202.084C159.841 198.731 164.32 196.817 169.012 196.762H174.412C179.13 196.817 183.633 198.742 186.934 202.113C190.234 205.484 192.064 210.027 192.02 214.745V218.534C192.026 221.54 191.374 224.511 190.111 227.238C188.848 229.966 187.003 232.384 184.706 234.323Z" fill="white"/>
<path d="M153.887 212.715H151.256C149.959 212.715 148.907 213.767 148.907 215.064V226.318C148.907 227.615 149.959 228.667 151.256 228.667H153.887C155.185 228.667 156.236 227.615 156.236 226.318V215.064C156.236 213.767 155.185 212.715 153.887 212.715Z" fill="#DFA331"/>
<path d="M193.122 212.715H190.491C189.193 212.715 188.142 213.767 188.142 215.064V226.318C188.142 227.615 189.193 228.667 190.491 228.667H193.122C194.419 228.667 195.471 227.615 195.471 226.318V215.064C195.471 213.767 194.419 212.715 193.122 212.715Z" fill="#DFA331"/>
<path d="M185.96 233.37C185.959 233.92 185.769 234.452 185.421 234.877C185.073 235.302 184.588 235.594 184.05 235.702L181.511 236.202C180.894 236.321 180.255 236.191 179.734 235.841C179.212 235.492 178.85 234.951 178.725 234.335C178.695 234.185 178.681 234.032 178.682 233.878C178.681 233.503 178.771 233.133 178.945 232.8C179.105 232.48 179.337 232.2 179.623 231.982C179.908 231.765 180.24 231.616 180.592 231.546L183.132 231.046C183.618 230.952 184.122 231.012 184.573 231.219C185.023 231.425 185.398 231.767 185.645 232.197C185.776 232.418 185.868 232.661 185.917 232.913C185.946 233.064 185.96 233.217 185.96 233.37V233.37Z" fill="#DFA331"/>
<path opacity="0.41" d="M185.644 232.197C185.482 232.517 185.25 232.796 184.965 233.012C184.679 233.229 184.348 233.377 183.997 233.447L181.458 233.947C181.291 234.134 181.078 234.273 180.841 234.353C180.603 234.432 180.349 234.449 180.104 234.401C179.858 234.353 179.629 234.243 179.439 234.08C179.248 233.917 179.104 233.707 179.019 233.472C178.934 233.236 178.911 232.983 178.953 232.736C178.995 232.489 179.101 232.258 179.259 232.064C179.418 231.87 179.624 231.72 179.857 231.63C180.09 231.539 180.343 231.511 180.591 231.547L183.131 231.047C183.618 230.953 184.121 231.013 184.572 231.219C185.023 231.426 185.397 231.768 185.644 232.197V232.197Z" fill="#ECBF4C"/>
<path d="M149.079 214.87H148.305C147.924 214.87 147.614 215.179 147.614 215.561V225.389C147.614 225.771 147.924 226.08 148.305 226.08H149.079C149.461 226.08 149.77 225.771 149.77 225.389V215.561C149.77 215.179 149.461 214.87 149.079 214.87Z" fill="#ECBF4C"/>
<path d="M195.643 214.87H194.869C194.487 214.87 194.178 215.179 194.178 215.561V225.389C194.178 225.771 194.487 226.08 194.869 226.08H195.643C196.024 226.08 196.334 225.771 196.334 225.389V215.561C196.334 215.179 196.024 214.87 195.643 214.87Z" fill="#ECBF4C"/>
<path d="M144.342 217.039V261.65C144.344 262.012 144.247 262.368 144.062 262.68C143.881 262.991 143.621 263.249 143.309 263.428C142.996 263.607 142.642 263.701 142.282 263.699H78.6818C78.1384 263.699 77.6174 263.482 77.2331 263.098C76.8489 262.714 76.6326 262.193 76.6318 261.65V217.039C76.6312 216.77 76.6837 216.502 76.7864 216.253C76.889 216.003 77.0398 215.776 77.2302 215.585C77.4206 215.394 77.6467 215.242 77.8958 215.138C78.1449 215.034 78.412 214.98 78.6818 214.979H142.282C142.552 214.979 142.821 215.032 143.071 215.136C143.321 215.239 143.548 215.391 143.739 215.582C143.931 215.773 144.082 216.001 144.186 216.251C144.289 216.501 144.342 216.769 144.342 217.039V217.039Z" fill="#5F5EA5"/>
<path opacity="0.06" d="M144.062 262.684C143.881 262.996 143.621 263.254 143.309 263.433C142.996 263.612 142.642 263.706 142.282 263.704H78.6818C78.1384 263.704 77.6174 263.487 77.2331 263.103C76.8489 262.719 76.6326 262.198 76.6318 261.654V217.044C76.6312 216.775 76.6837 216.507 76.7864 216.258C76.889 216.008 77.0398 215.781 77.2302 215.59C77.4206 215.399 77.6467 215.247 77.8958 215.143C78.1449 215.039 78.412 214.985 78.6818 214.984H82.6218C82.8519 215.89 83.1357 216.782 83.4718 217.654C86.2576 224.07 90.2849 229.871 95.3218 234.724C101.942 241.284 109.862 246.394 117.982 250.964C126.239 255.777 134.98 259.706 144.062 262.684V262.684Z" fill="white"/>
<path d="M121.094 242.022H99.8766L95.8486 272.413H125.122L121.094 242.022Z" fill="#514E92"/>
<path d="M116.071 254.314C116.071 255.418 115.743 256.498 115.13 257.417C114.516 258.335 113.643 259.051 112.623 259.474C111.602 259.896 110.479 260.007 109.395 259.791C108.312 259.576 107.317 259.044 106.536 258.262C105.754 257.481 105.222 256.486 105.007 255.403C104.791 254.319 104.902 253.196 105.324 252.175C105.747 251.155 106.463 250.282 107.381 249.668C108.3 249.055 109.38 248.727 110.484 248.727C111.218 248.726 111.945 248.871 112.623 249.152C113.301 249.432 113.916 249.844 114.435 250.363C114.954 250.881 115.366 251.497 115.646 252.175C115.927 252.853 116.072 253.58 116.071 254.314V254.314Z" fill="#5F5EA5"/>
<path d="M215.952 278.899L215.442 284.059L215.122 287.219L212.032 318.319L211.502 323.609L210.842 330.339L209.792 340.919L209.062 348.279L208.812 350.769H91.3324L90.3424 340.919L89.3024 330.339L88.6324 323.609L88.1024 318.319L85.0224 287.219L84.7024 284.059L84.1924 278.899H215.952Z" fill="#C3B7FC"/>
<path d="M215.948 278.901L215.122 287.219H85.0223L84.1963 278.901H215.948Z" fill="#A797FB"/>
<path d="M210.842 330.341L209.794 340.92H90.3458L89.2979 330.341H210.842Z" fill="#5F5EA5"/>
<path d="M212.033 318.318L211.504 323.607H88.6335L88.1045 318.318H212.033Z" fill="white"/>
<path opacity="0.11" d="M209.062 348.284L208.812 350.774H91.3324L90.3424 340.924L89.3024 330.344L88.6324 323.614L88.1024 318.324L85.0224 287.224L84.7024 284.064L84.1924 278.904H102.562C102.732 279.024 102.912 279.154 103.082 279.294C111.492 285.994 118.342 295.544 126.702 302.624C144.247 317.464 163.864 329.662 184.932 338.834C190.762 341.374 196.689 343.671 202.712 345.724C204.192 346.229 206.522 347.259 209.062 348.284Z" fill="#5F5EA5"/>
<path d="M221.115 272.413H79.0289C76.9672 272.413 75.2959 274.084 75.2959 276.146V280.325C75.2959 282.387 76.9672 284.058 79.0289 284.058H221.115C223.177 284.058 224.848 282.387 224.848 280.325V276.146C224.848 274.084 223.177 272.413 221.115 272.413Z" fill="#DFDBFC"/>
</svg>
