<svg id="Capa_1" enable-background="new 0 0 512 512" height="512" viewBox="0 0 512 512" width="512" xmlns="http://www.w3.org/2000/svg"><g><g><g><g><g><g><g><circle cx="256" cy="256" fill="#7584f2" r="256"/></g></g></g></g></g></g><path d="m512 256c0-26.721-4.094-52.486-11.689-76.702l-72.999-72.998-342.624 301.354 91.738 91.737c25.047 8.184 51.793 12.609 79.574 12.609 141.385 0 256-114.615 256-256z" fill="#4855b7"/><g><path d="m84.688 136.791h342.624v270.863h-342.624z" fill="#fff"/></g><g><path d="m256.121 136.791h171.191v270.863h-171.191z" fill="#e9edf5"/></g><g><path d="m84.688 106.3h342.624v39.698h-342.624z" fill="#b5efff"/></g><g><path d="m256.121 106.3h171.191v39.698h-171.191z" fill="#80dbff"/></g><g><circle cx="109.507" cy="126.148" fill="#707789" r="10.643"/></g><g><circle cx="173.362" cy="126.148" fill="#707789" r="10.643"/></g><g><circle cx="141.435" cy="126.148" fill="#707789" r="10.643"/></g><g><g><path d="m351.461 287.356v-24.721l-12.906-3.136c-6.577-1.598-11.932-6.289-14.513-12.546-.027-.065-.053-.129-.08-.194-2.607-6.267-2.158-13.386 1.372-19.182l6.908-11.343-17.48-17.48-11.343 6.908c-5.797 3.53-12.916 3.979-19.182 1.372-.064-.027-.129-.054-.193-.08-6.257-2.582-10.947-7.936-12.546-14.513l-3.136-12.906h-24.722l-3.136 12.906c-1.598 6.577-6.289 11.932-12.546 14.513-.065.027-.129.053-.193.08-6.267 2.607-13.386 2.158-19.182-1.372l-11.343-6.908-17.48 17.48 6.908 11.343c3.53 5.797 3.979 12.916 1.372 19.182-.027.064-.054.129-.08.193-2.582 6.257-7.936 10.947-14.513 12.546l-12.906 3.136v24.721l12.906 3.136c6.577 1.598 11.932 6.289 14.513 12.546.027.065.053.129.08.194 2.607 6.267 2.158 13.386-1.372 19.182l-6.908 11.343 17.48 17.48 11.343-6.908c5.797-3.53 12.916-3.979 19.182-1.372.064.027.129.053.193.08 6.257 2.582 10.947 7.936 12.546 14.513l3.136 12.906h24.721l3.136-12.906c1.598-6.577 6.289-11.932 12.546-14.513.065-.027.129-.053.193-.08 6.267-2.607 13.386-2.158 19.182 1.372l11.343 6.908 17.48-17.48-6.908-11.343c-3.53-5.797-3.979-12.916-1.372-19.182.027-.064.054-.129.08-.194 2.582-6.257 7.936-10.947 14.513-12.546zm-95.461 25.893c-21.127 0-38.253-17.127-38.253-38.254s17.127-38.254 38.253-38.254c21.127 0 38.253 17.127 38.253 38.254.001 21.127-17.126 38.254-38.253 38.254z" fill="#636978"/></g></g><g><g><path d="m338.555 259.499c-6.577-1.598-11.932-6.289-14.513-12.546-.027-.065-.053-.129-.08-.193-2.607-6.267-2.158-13.386 1.372-19.182l6.908-11.343-17.48-17.48-11.343 6.907c-5.797 3.53-12.916 3.979-19.182 1.372-.064-.027-.129-.054-.194-.08-6.257-2.581-10.947-7.936-12.546-14.513l-3.136-12.906h-12.24v57.21c21.071.065 38.133 17.164 38.133 38.25 0 21.087-17.062 38.185-38.133 38.251v57.21h12.24l3.136-12.906c1.598-6.577 6.289-11.932 12.546-14.513.064-.027.129-.053.193-.08 6.267-2.607 13.385-2.158 19.182 1.372l11.343 6.908 17.48-17.48-6.908-11.343c-3.53-5.797-3.979-12.916-1.372-19.182.027-.064.053-.129.08-.194 2.582-6.257 7.936-10.947 14.513-12.546l12.906-3.136v-24.721z" fill="#414952"/></g></g><g><path d="m105.381 348.998h71.674v30h-71.674z" fill="#fe6a16"/></g><g><path d="m105.381 303.821h43.873v30h-43.873z" fill="#fe6a16"/></g><g><path d="m355.588 164.534h43.874v30h-43.874z" fill="#f24500"/></g></g></svg>