<svg id="Capa_1" enable-background="new 0 0 512 512" height="512" viewBox="0 0 512 512" width="512" xmlns="http://www.w3.org/2000/svg" xmlns:xlink="http://www.w3.org/1999/xlink"><linearGradient id="lg1"><stop offset="0" stop-color="#43386b"/><stop offset="1" stop-color="#7662bd"/></linearGradient><linearGradient id="SVGID_1_" gradientUnits="userSpaceOnUse" x1="59.043" x2="343.176" xlink:href="#lg1" y1="255.996" y2="255.996"/><linearGradient id="SVGID_2_" gradientUnits="userSpaceOnUse" x1="177.259" x2="186.596" xlink:href="#lg1" y1="269.791" y2="253.62"/><linearGradient id="lg2"><stop offset="0" stop-color="#a996eb"/><stop offset="1" stop-color="#c5baeb"/></linearGradient><linearGradient id="SVGID_3_" gradientUnits="userSpaceOnUse" x1="180.387" x2="180.387" xlink:href="#lg2" y1="319.433" y2="251.314"/><linearGradient id="SVGID_4_" gradientUnits="userSpaceOnUse" x1="234.308" x2="243.644" xlink:href="#lg1" y1="236.775" y2="220.604"/><linearGradient id="SVGID_5_" gradientUnits="userSpaceOnUse" x1="237.436" x2="237.436" xlink:href="#lg2" y1="275.148" y2="209.117"/><linearGradient id="SVGID_6_" gradientUnits="userSpaceOnUse" x1="291.356" x2="300.693" xlink:href="#lg1" y1="203.832" y2="187.66"/><linearGradient id="SVGID_7_" gradientUnits="userSpaceOnUse" x1="294.484" x2="294.484" xlink:href="#lg2" y1="242.205" y2="176.173"/><linearGradient id="SVGID_8_" gradientUnits="userSpaceOnUse" x1="177.259" x2="186.596" xlink:href="#lg1" y1="347.636" y2="331.465"/><linearGradient id="SVGID_9_" gradientUnits="userSpaceOnUse" x1="180.387" x2="180.387" xlink:href="#lg2" y1="386.009" y2="319.978"/><linearGradient id="SVGID_10_" gradientUnits="userSpaceOnUse" x1="234.308" x2="243.644" xlink:href="#lg1" y1="314.62" y2="298.449"/><linearGradient id="SVGID_11_" gradientUnits="userSpaceOnUse" x1="237.436" x2="237.436" xlink:href="#lg2" y1="352.993" y2="286.962"/><linearGradient id="SVGID_12_" gradientUnits="userSpaceOnUse" x1="291.356" x2="300.693" xlink:href="#lg1" y1="281.677" y2="265.506"/><linearGradient id="SVGID_13_" gradientUnits="userSpaceOnUse" x1="294.484" x2="294.484" xlink:href="#lg2" y1="320.05" y2="254.018"/><linearGradient id="SVGID_14_" gradientUnits="userSpaceOnUse" x1="177.259" x2="186.596" xlink:href="#lg1" y1="425.481" y2="409.31"/><linearGradient id="SVGID_15_" gradientUnits="userSpaceOnUse" x1="180.387" x2="180.387" xlink:href="#lg2" y1="463.854" y2="397.823"/><linearGradient id="SVGID_16_" gradientUnits="userSpaceOnUse" x1="234.308" x2="243.644" xlink:href="#lg1" y1="392.466" y2="376.294"/><linearGradient id="SVGID_17_" gradientUnits="userSpaceOnUse" x1="237.436" x2="237.436" xlink:href="#lg2" y1="430.838" y2="364.807"/><linearGradient id="SVGID_18_" gradientUnits="userSpaceOnUse" x1="291.356" x2="300.693" xlink:href="#lg1" y1="359.522" y2="343.351"/><linearGradient id="SVGID_19_" gradientUnits="userSpaceOnUse" x1="294.484" x2="294.484" xlink:href="#lg2" y1="397.895" y2="331.863"/><linearGradient id="SVGID_20_" gradientUnits="userSpaceOnUse" x1="359.225" x2="393.086" y1="310.366" y2="251.718"><stop offset="0" stop-color="#ffa538"/><stop offset="1" stop-color="#ffc538"/></linearGradient><linearGradient id="SVGID_21_" gradientUnits="userSpaceOnUse" x1="390.286" x2="400.853" y1="320.848" y2="302.545"><stop offset="0" stop-color="#236568"/><stop offset="1" stop-color="#2f878a"/></linearGradient><g><g><path d="m335.789 32.787.005-.011-51.029-29.461c-4.276-3.559-10.562-4.589-16.058-1.416l-191.115 110.34c-11.478 6.627-18.549 18.874-18.549 32.128v322.477c0 5.205 2.72 9.453 6.574 11.88l-.007.016.239.138c.158.095.316.186.477.276l51.107 29.506c4.277 3.574 10.573 4.612 16.079 1.434l191.115-110.34c11.478-6.627 18.549-18.874 18.549-32.128v-322.477c0-5.566-3.104-10.042-7.387-12.362z" fill="url(#SVGID_1_)"/><path d="m130.952 143.302 191.115-110.34c9.382-5.416 21.108 1.354 21.108 12.187v322.477c0 13.254-7.071 25.501-18.549 32.128l-191.115 110.34c-9.381 5.416-21.108-1.354-21.108-12.187v-322.477c.001-13.254 7.071-25.501 18.549-32.128z" fill="#7662bd"/><path d="m134.859 180.958 188.228-108.674v58.524l-188.228 108.673z" fill="#43386b"/><g><path d="m195.519 243.826.001-.002-9.968-5.738-.001.001c-3.935-2.085-8.989-1.788-14.503 1.396-12.546 7.243-22.717 26.677-22.717 43.405 0 9.197 3.078 15.653 7.931 18.406l-.003.007 9.107 5.258.009-.019c4.003 2.393 9.255 2.22 15.01-1.103 12.546-7.244 22.717-26.677 22.717-43.405.002-8.977-2.929-15.346-7.583-18.206z" fill="url(#SVGID_2_)"/><path d="m203.104 262.032c0-16.729-10.171-24.417-22.717-17.174-12.546 7.244-22.717 26.677-22.717 43.405 0 16.729 10.171 24.418 22.717 17.174 12.546-7.243 22.717-26.676 22.717-43.405z" fill="url(#SVGID_3_)"/></g><g><path d="m252.568 210.811.001-.002-9.968-5.738-.001.002c-3.935-2.085-8.989-1.788-14.503 1.396-12.546 7.244-22.717 26.677-22.717 43.405 0 9.197 3.078 15.653 7.931 18.406l-.003.007 9.107 5.258.009-.02c4.003 2.393 9.255 2.22 15.01-1.103 12.546-7.244 22.717-26.677 22.717-43.406.002-8.977-2.93-15.345-7.583-18.205z" fill="url(#SVGID_4_)"/><path d="m260.153 229.016c0-16.729-10.171-24.418-22.717-17.174s-22.717 26.677-22.717 43.405 10.171 24.417 22.717 17.174 22.717-26.676 22.717-43.405z" fill="url(#SVGID_5_)"/></g><g><path d="m309.617 177.867.001-.002-9.968-5.738-.001.001c-3.935-2.085-8.989-1.788-14.503 1.396-12.546 7.244-22.717 26.677-22.717 43.406 0 9.197 3.078 15.653 7.931 18.406l-.003.007 9.107 5.258.009-.019c4.003 2.393 9.255 2.22 15.01-1.103 12.546-7.244 22.717-26.677 22.717-43.406.001-8.977-2.93-15.346-7.583-18.206z" fill="url(#SVGID_6_)"/><path d="m317.201 196.073c0-16.728-10.171-24.417-22.717-17.174-12.546 7.244-22.717 26.677-22.717 43.405s10.171 24.417 22.717 17.174 22.717-26.677 22.717-43.405z" fill="url(#SVGID_7_)"/></g><g><path d="m195.519 321.672.001-.002-9.968-5.738-.001.001c-3.935-2.085-8.989-1.788-14.503 1.396-12.546 7.243-22.717 26.677-22.717 43.405 0 9.197 3.078 15.653 7.931 18.406l-.003.007 9.107 5.258.009-.02c4.003 2.393 9.255 2.22 15.01-1.103 12.546-7.244 22.717-26.677 22.717-43.405.002-8.977-2.929-15.346-7.583-18.205z" fill="url(#SVGID_8_)"/><path d="m203.104 339.877c0-16.729-10.171-24.418-22.717-17.174s-22.717 26.677-22.717 43.405 10.171 24.417 22.717 17.174 22.717-26.676 22.717-43.405z" fill="url(#SVGID_9_)"/></g><g><path d="m252.568 288.656.001-.002-9.968-5.738-.001.002c-3.935-2.085-8.989-1.788-14.503 1.396-12.546 7.244-22.717 26.677-22.717 43.405 0 9.197 3.078 15.653 7.931 18.406l-.003.007 9.107 5.258.009-.02c4.003 2.393 9.255 2.22 15.01-1.103 12.546-7.244 22.717-26.677 22.717-43.405.002-8.977-2.93-15.346-7.583-18.206z" fill="url(#SVGID_10_)"/><path d="m260.153 306.862c0-16.729-10.171-24.418-22.717-17.174s-22.717 26.677-22.717 43.405 10.171 24.418 22.717 17.174 22.717-26.677 22.717-43.405z" fill="url(#SVGID_11_)"/></g><g><path d="m309.617 255.712.001-.002-9.968-5.738-.001.001c-3.935-2.085-8.989-1.788-14.503 1.396-12.546 7.244-22.717 26.677-22.717 43.406 0 9.197 3.078 15.653 7.931 18.406l-.003.007 9.107 5.258.009-.019c4.003 2.393 9.255 2.22 15.01-1.103 12.546-7.244 22.717-26.677 22.717-43.406.001-8.977-2.93-15.346-7.583-18.206z" fill="url(#SVGID_12_)"/><path d="m317.201 273.918c0-16.728-10.171-24.417-22.717-17.174-12.546 7.244-22.717 26.677-22.717 43.405 0 16.729 10.171 24.418 22.717 17.174 12.546-7.243 22.717-26.676 22.717-43.405z" fill="url(#SVGID_13_)"/></g><g><path d="m195.519 399.517.001-.002-9.968-5.738-.001.001c-3.935-2.085-8.989-1.788-14.503 1.396-12.546 7.243-22.717 26.677-22.717 43.405 0 9.197 3.078 15.653 7.931 18.406l-.003.007 9.107 5.258.009-.02c4.003 2.393 9.255 2.22 15.01-1.103 12.546-7.244 22.717-26.677 22.717-43.405.002-8.976-2.929-15.345-7.583-18.205z" fill="url(#SVGID_14_)"/><path d="m203.104 417.723c0-16.728-10.171-24.418-22.717-17.174s-22.717 26.677-22.717 43.405c0 16.729 10.171 24.418 22.717 17.174s22.717-26.677 22.717-43.405z" fill="url(#SVGID_15_)"/></g><g><path d="m252.568 366.501.001-.002-9.968-5.738-.001.002c-3.935-2.085-8.989-1.788-14.503 1.396-12.546 7.244-22.717 26.677-22.717 43.405 0 9.197 3.078 15.653 7.931 18.406l-.003.007 9.107 5.258.009-.02c4.003 2.393 9.255 2.22 15.01-1.103 12.546-7.244 22.717-26.677 22.717-43.405.002-8.977-2.93-15.346-7.583-18.206z" fill="url(#SVGID_16_)"/><path d="m260.153 384.707c0-16.728-10.171-24.417-22.717-17.174-12.546 7.244-22.717 26.677-22.717 43.405 0 16.729 10.171 24.418 22.717 17.174 12.546-7.243 22.717-26.677 22.717-43.405z" fill="url(#SVGID_17_)"/></g><g><path d="m309.617 333.557.001-.002-9.968-5.738-.001.001c-3.935-2.085-8.989-1.788-14.503 1.396-12.546 7.244-22.717 26.677-22.717 43.405 0 9.197 3.078 15.653 7.931 18.406l-.003.007 9.107 5.258.009-.019c4.003 2.393 9.255 2.22 15.01-1.103 12.546-7.244 22.717-26.677 22.717-43.405.001-8.977-2.93-15.346-7.583-18.206z" fill="url(#SVGID_18_)"/><path d="m317.201 351.763c0-16.729-10.171-24.418-22.717-17.174s-22.717 26.677-22.717 43.405 10.171 24.417 22.717 17.174 22.717-26.676 22.717-43.405z" fill="url(#SVGID_19_)"/></g></g><g><path d="m425.45 216.2.004-.008-36.15-20.812-.002.006c-14.27-7.562-32.6-6.485-52.599 5.062-45.502 26.271-82.389 96.75-82.389 157.42 0 33.355 11.164 56.77 28.765 66.754l-.012.027 33.03 19.069.034-.071c14.518 8.678 33.565 8.052 54.438-3.999 45.503-26.271 82.389-96.75 82.389-157.42-.001-32.558-10.632-55.656-27.508-66.028z" fill="url(#SVGID_20_)"/><ellipse cx="370.568" cy="329.795" fill="#f7e041" rx="126.483" ry="71.556" transform="matrix(.392 -.92 .92 .392 -77.992 541.643)"/><g><path d="m421.846 326.096-21.451-12.574c-4.354-2.728-10.096-2.715-15.911-1.919 1.58-1.819 3.59-3.441 5.927-4.789 7.7-4.446 20.178-5.809 30.001-4.047l9.159-30.952-21.707-12.725c-2.256-.635-4.736-.978-7.365-1.064v-8.542l-21.707-12.725-17.655 10.193v26.018c-16.992 13.527-27.611 33.287-27.611 52.933 0 13.279 4.486 18.78 10.739 20.586l15.693 9.06c4.594 5.053 11.942 4.928 19.346 3.678-2.023 2.844-4.922 5.39-8.476 7.443-9.691 5.595-24.161 6.162-33.718.705l-9.426 30.752 21.707 12.725c3.481 1.801 7.455 2.875 11.746 3.234v10.923l21.707 12.725 17.656-10.194v-27.08c16.726-12.666 29.206-32.615 29.206-54.385-.001-11.314-3.156-17.18-7.86-19.979z" fill="url(#SVGID_21_)"/><g><path d="m400.499 400.46v27.08l-17.655 10.193v-27.257c-12.478 4.903-24.559 4.975-33.453.376l9.426-30.753c9.557 5.456 24.027 4.89 33.718-.705 7.168-4.138 11.682-10.284 11.682-16.833 0-21.063-48.984 19.962-48.984-23.933 0-19.646 10.619-39.406 27.611-52.933v-26.018l17.655-10.193v25.841c10.886-4.692 21.24-5.714 29.071-3.51l-9.159 30.952c-9.824-1.762-22.301-.399-30.001 4.047-5.84 3.372-9.689 8.426-9.689 14.09 0 20.531 48.984-19.431 48.984 25.172 0 21.77-12.479 41.718-29.206 54.384z" fill="#06daae"/></g><path d="m361.138 272.969 21.707 12.725v-26.018l-21.707-12.725z" fill="#236568"/><path d="m358.818 380.099-21.707-12.725-9.426 30.752 21.707 12.725z" fill="#2f878a"/></g></g></g></svg>