<svg id="Capa_1" enable-background="new 0 0 512 512" height="512" viewBox="0 0 512 512" width="512" xmlns="http://www.w3.org/2000/svg"><g><g><g><g><g><path d="m286 512h-60c-7.91 0-14.473-6.152-14.971-14.062l-1.318-22.006c-27.129-5.713-53.203-16.523-76.465-31.729l-15.82 13.96c-5.918 5.229-14.883 4.98-20.537-.645l-42.422-42.422c-5.596-5.596-5.889-14.59-.645-20.537l13.975-15.82c-15.205-23.247-26.016-49.307-31.758-76.45l-21.977-1.318c-7.91-.498-14.062-7.046-14.062-14.971v-60c0-7.925 6.152-14.473 14.062-14.971l21.977-1.318c5.742-27.144 16.553-53.203 31.758-76.45l-13.975-15.82c-5.244-5.947-4.951-14.941.645-20.537l42.422-42.422c5.625-5.61 14.619-5.859 20.537-.645l15.82 13.96c23.262-15.205 49.336-26.016 76.465-31.729l1.318-22.006c.498-7.91 7.061-14.062 14.971-14.062h60c7.91 0 14.473 6.152 14.971 14.062l1.318 22.006c27.129 5.713 53.203 16.523 76.465 31.729l15.82-13.96c5.947-5.2 14.912-4.951 20.537.645l42.422 42.422c5.596 5.596 5.889 14.59.645 20.537l-13.975 15.82c15.205 23.247 26.016 49.307 31.758 76.45l21.977 1.318c7.91.498 14.062 7.046 14.062 14.971v60c0 7.925-6.152 14.473-14.062 14.971l-21.977 1.318c-5.742 27.144-16.553 53.203-31.758 76.45l13.975 15.82c5.244 5.947 4.951 14.941-.645 20.537l-42.422 42.422c-5.625 5.61-14.619 5.859-20.537.645l-15.82-13.96c-23.262 15.205-49.336 26.016-76.465 31.729l-1.318 22.006c-.498 7.91-7.061 14.062-14.971 14.062z" fill="#4d4d99"/></g></g></g></g><path d="m497.938 211.029-21.977-1.318c-5.742-27.144-16.553-53.203-31.758-76.45l13.975-15.82c5.244-5.947 4.951-14.941-.645-20.537l-42.422-42.422c-5.625-5.596-14.59-5.845-20.537-.645l-15.82 13.96c-23.262-15.205-49.336-26.016-76.465-31.729l-1.318-22.006c-.498-7.91-7.061-14.062-14.971-14.062h-30v512h30c7.91 0 14.473-6.152 14.971-14.062l1.318-22.006c27.129-5.713 53.203-16.523 76.465-31.729l15.82 13.96c5.918 5.215 14.912 4.966 20.537-.645l42.422-42.422c5.596-5.596 5.889-14.59.645-20.537l-13.975-15.82c15.205-23.247 26.016-49.307 31.758-76.45l21.977-1.318c7.91-.498 14.062-7.046 14.062-14.971v-60c0-7.925-6.152-14.473-14.062-14.971z" fill="#292966"/><g><path d="m211 346c0-8.291-6.709-15-15-15-8.262 0-15-6.724-15-15v-30c0-11.567-4.508-22.02-11.704-30 7.196-7.98 11.704-18.433 11.704-30v-30c0-8.276 6.738-15 15-15 8.291 0 15-6.709 15-15s-6.709-15-15-15c-24.814 0-45 20.186-45 45v30c0 8.276-6.738 15-15 15-8.291 0-15 6.709-15 15s6.709 15 15 15c8.262 0 15 6.724 15 15v30c0 24.814 20.186 45 45 45 8.291 0 15-6.709 15-15z" fill="#9ff"/><path d="m391 256c0-8.291-6.709-15-15-15-8.262 0-15-6.724-15-15v-30c0-24.814-20.186-45-45-45-8.291 0-15 6.709-15 15s6.709 15 15 15c8.262 0 15 6.724 15 15v30c0 11.567 4.508 22.02 11.704 30-7.196 7.98-11.704 18.433-11.704 30v30c0 8.276-6.738 15-15 15-8.291 0-15 6.709-15 15s6.709 15 15 15c24.814 0 45-20.186 45-45v-30c0-8.276 6.738-15 15-15 8.291 0 15-6.709 15-15z" fill="#66e6ff"/><circle cx="226" cy="256" fill="#9ff" r="15"/><circle cx="286" cy="256" fill="#66e6ff" r="15"/></g></g></svg>