<svg id="Capa_1" enable-background="new 0 0 512 512" height="512" viewBox="0 0 512 512" width="512" xmlns="http://www.w3.org/2000/svg" xmlns:xlink="http://www.w3.org/1999/xlink"><linearGradient id="SVGID_1_" gradientUnits="userSpaceOnUse" x1="65.483" x2="405.135" y1="455.411" y2="50.629"><stop offset="0" stop-color="#fff" stop-opacity="0"/><stop offset=".2532" stop-color="#eef" stop-opacity=".403"/><stop offset=".629" stop-color="#d9d9ff"/></linearGradient><linearGradient id="SVGID_2_" gradientUnits="userSpaceOnUse" x1="240.265" x2="240.265" y1="422.628" y2="53.549"><stop offset="0" stop-color="#ff4d4d" stop-opacity=".4"/><stop offset=".1463" stop-color="#ff4d4d" stop-opacity=".342"/><stop offset="1" stop-color="#ff4d4d" stop-opacity="0"/></linearGradient><g><g><path d="m488.514 218.085c-30.706-80.231-103.012-76.269-107.727-120.509-9.232-86.615-29.828-98.222-46.599-97.549-26.827 1.077-66.332 38.387-106.664 35.35-65.639-4.943-115.02-72.434-179.333-6.116-59.691 61.551 18.418 144.839-12.512 208.782-15.442 31.922-34.689 80.576-24.923 119.022 31.041 122.202 128.891 162.044 274.811 153.924 201.861-11.234 246.896-178.069 202.947-292.904z" fill="url(#SVGID_1_)"/></g><g><g><g><g><g><g><g><g><path d="m428.95 130.3v282.33c0 5.53-4.48 10-10 10h-357.38c-2.77 0-5.27-1.12-7.07-2.94-.23-.22-.45-.46-.65-.71-.41-.49-.77-1.02-1.07-1.58 0-.01 0-.01 0-.01-.24-.42-.44-.86-.6-1.32 0-.01 0-.01 0-.01-.06-.16-.11-.31-.16-.47-.29-.93-.45-1.93-.45-2.97v-282.32l188.687-6z" fill="#4d4dff"/><path d="m410.315 296.049c-5.17-2.74-10.62-5.02-16.3-6.77l-3.72-23.39c-.8-5.01-5.12-8.7-10.19-8.7h-28.17c-5.08 0-9.4 3.69-10.19 8.7l-3.72 23.39c-5.68 1.75-11.14 4.03-16.31 6.77l-19.18-13.92c-4.1-2.98-9.77-2.54-13.35 1.05l-19.92 19.92c-3.59 3.59-4.04 9.25-1.06 13.36l13.92 19.18c-2.73 5.17-5.01 10.62-6.76 16.31l-23.4 3.71c-5.01.8-8.7 5.12-8.7 10.19v28.17c0 5.08 3.69 9.4 8.7 10.19l23.4 3.72c1.57 5.09 3.57 10.01 5.93 14.7h59.5c-14.58-8.63-24.36-24.52-24.36-42.69 0-27.39 22.2-49.59 49.58-49.59 27.39 0 49.59 22.2 49.59 49.59 0 18.17-9.78 34.06-24.36 42.69h27.71c5.52 0 10-4.47 10-10v-130.11z" fill="#2c27ff"/><path d="m295.205 347.938v74.69h-153.74v-74.69c0-5.53 4.47-10 10-10h133.74c5.52 0 10 4.471 10 10z" fill="#ffc599"/><path d="m285.205 337.938h-4.25c-2.22 4.48-4.1 9.16-5.59 14.01l-23.4 3.71c-5.01.8-8.7 5.12-8.7 10.19v28.17c0 5.08 3.69 9.4 8.7 10.19l23.4 3.72c1.57 5.09 3.57 10.01 5.93 14.7h13.91v-74.69c0-5.529-4.48-10-10-10z" fill="#ffab66"/><path d="m110.53 130.3v292.32h-48.96c-2.77 0-5.27-1.12-7.07-2.93-.23-.22-.45-.46-.65-.71-.4-.49-.76-1.02-1.07-1.58 0-.01 0-.01 0-.01-.23-.43-.43-.87-.6-1.32 0-.01 0-.01 0-.01-.06-.16-.11-.31-.16-.47-.29-.93-.45-1.93-.45-2.97v-282.32z" fill="#b3b3ff"/><g fill="#ffc599"><path d="m90.019 172.657h-13.94c-2.761 0-5-2.239-5-5v-13.94c0-2.761 2.239-5 5-5h13.94c2.761 0 5 2.239 5 5v13.94c0 2.762-2.239 5-5 5z"/><path d="m90.019 217.175h-13.94c-2.761 0-5-2.239-5-5v-13.94c0-2.761 2.239-5 5-5h13.94c2.761 0 5 2.239 5 5v13.94c0 2.761-2.239 5-5 5z"/><path d="m90.019 261.693h-13.94c-2.761 0-5-2.239-5-5v-13.94c0-2.761 2.239-5 5-5h13.94c2.761 0 5 2.239 5 5v13.94c0 2.761-2.239 5-5 5z"/></g><g><path d="m428.948 130.301v-66.757c0-5.523-4.477-10-10-10h-357.382c-5.523 0-10 4.477-10 10v66.757z" fill="#ff9d33"/><path d="m329.047 107.419h-236.443c-2.761 0-5-2.239-5-5v-18.993c0-2.761 2.239-5 5-5h236.442c2.761 0 5 2.239 5 5v18.993c.001 2.761-2.238 5-4.999 5z" fill="#ffc599"/></g></g><g><g><g><circle cx="361.832" cy="83.426" fill="#fff" r="5"/></g><g><circle cx="361.832" cy="102.419" fill="#fff" r="5"/></g></g><g><g><circle cx="379.135" cy="83.426" fill="#fff" r="5"/></g><g><circle cx="379.135" cy="102.419" fill="#fff" r="5"/></g></g><g><g><circle cx="396.438" cy="83.426" fill="#fff" r="5"/></g><g><circle cx="396.438" cy="102.419" fill="#fff" r="5"/></g></g></g></g></g></g></g></g><g><path d="m428.955 63.549v349.08c0 5.53-4.48 10-10 10h-357.38c-5.53 0-10-4.47-10-10v-349.08c0-5.52 4.47-10 10-10h357.38c5.52 0 10 4.479 10 10z" fill="url(#SVGID_2_)"/><path d="m480.066 331.66-23.393-3.716c-1.753-5.683-4.029-11.136-6.766-16.308l13.921-19.179c2.98-4.106 2.533-9.769-1.054-13.356l-19.921-19.921c-3.587-3.587-9.251-4.034-13.356-1.054l-19.179 13.92c-5.172-2.737-10.625-5.013-16.308-6.766l-3.716-23.393c-.796-5.011-5.117-8.699-10.19-8.699h-28.172c-5.073 0-9.394 3.688-10.19 8.699l-3.716 23.392c-5.684 1.753-11.137 4.029-16.309 6.766l-19.178-13.92c-4.106-2.98-9.769-2.533-13.356 1.054l-19.921 19.921c-3.587 3.587-4.035 9.251-1.054 13.356l13.921 19.179c-2.736 5.172-5.012 10.624-6.765 16.307l-23.394 3.717c-5.011.796-8.699 5.117-8.699 10.19v28.172c0 5.073 3.688 9.394 8.699 10.19l23.393 3.716c1.753 5.683 4.029 11.136 6.766 16.308l-13.92 19.179c-2.98 4.106-2.533 9.769 1.054 13.356l19.921 19.921c3.587 3.587 9.251 4.034 13.356 1.054l19.179-13.92c5.172 2.737 10.625 5.013 16.308 6.766l3.716 23.393c.796 5.011 5.117 8.699 10.19 8.699h28.172c5.073 0 9.394-3.688 10.19-8.699l3.717-23.395c5.683-1.753 11.135-4.029 16.307-6.765l19.18 13.921c4.106 2.98 9.769 2.533 13.356-1.054l19.921-19.921c3.587-3.587 4.034-9.251 1.054-13.356l-13.92-19.178c2.737-5.172 5.014-10.625 6.766-16.309l23.392-3.716c5.011-.796 8.699-5.117 8.699-10.19v-28.171c-.002-5.073-3.69-9.394-8.701-10.19zm-64.461 24.282c0 27.38-22.201 49.581-49.594 49.581-27.38 0-49.581-22.201-49.581-49.581 0-27.392 22.201-49.594 49.581-49.594 27.393 0 49.594 22.202 49.594 49.594z" fill="#9494ff"/><path d="m363.382 454.953-4.132-26.009c2.228.205 4.483.309 6.762.309 2.283 0 4.543-.105 6.773-.31l-4.132 26.01zm49.445-42.628c3.478-2.892 6.687-6.101 9.579-9.578l15.49 21.341-3.727 3.727zm-118.689 11.763 15.489-21.34c2.892 3.477 6.101 6.686 9.578 9.578l-21.34 15.489zm-27.138-65.516v-5.271l26.009-4.132c-.205 2.23-.31 4.49-.31 6.773 0 2.28.105 4.535.309 6.762zm172.027 4.131c.205-2.227.309-4.482.309-6.761 0-2.283-.105-4.542-.31-6.773l26.009 4.132v5.271zm-16.622-53.576c-2.892-3.478-6.101-6.686-9.579-9.579l21.343-15.491 3.727 3.727zm-128.267-21.342 3.728-3.728 21.341 15.49c-3.477 2.892-6.686 6.102-9.578 9.58zm78.647-4.857c-2.23-.206-4.49-.31-6.773-.31-2.28 0-4.534.104-6.761.309l4.132-26.008h5.271z" fill="#b3b3ff"/></g><g><g><g><g><g><path d="m165.043 160.687h-18.583c-2.761 0-5-2.239-5-5s2.239-5 5-5h18.583c2.761 0 5 2.239 5 5s-2.239 5-5 5z" fill="#ff6c6c"/></g><g><g><path d="m225.043 181.068h-78.583c-2.761 0-5-2.239-5-5s2.239-5 5-5h78.583c2.761 0 5 2.239 5 5s-2.239 5-5 5z" fill="#ffab66"/></g><g><path d="m185.043 201.45h-38.583c-2.761 0-5-2.239-5-5s2.239-5 5-5h38.583c2.761 0 5 2.239 5 5s-2.239 5-5 5z" fill="#9494ff"/></g></g></g></g><g><g><g><g><path d="m333.525 181.068h-84.583c-2.761 0-5-2.239-5-5s2.239-5 5-5h84.583c2.761 0 5 2.239 5 5s-2.238 5-5 5z" fill="#ffab66"/></g><g><path d="m293.525 201.45h-84.583c-2.761 0-5-2.239-5-5s2.239-5 5-5h84.583c2.761 0 5 2.239 5 5s-2.238 5-5 5z" fill="#ffab66"/></g></g></g></g><g><g><g><g><path d="m225.043 221.831h-78.583c-2.761 0-5-2.239-5-5s2.239-5 5-5h78.583c2.761 0 5 2.239 5 5s-2.239 5-5 5z" fill="#ffab66"/></g><g><path d="m185.043 242.213h-38.583c-2.761 0-5-2.239-5-5s2.239-5 5-5h38.583c2.761 0 5 2.239 5 5s-2.239 5-5 5z" fill="#9494ff"/></g></g></g></g><g><g><g><g><path d="m333.525 221.831h-84.583c-2.761 0-5-2.239-5-5s2.239-5 5-5h84.583c2.761 0 5 2.239 5 5s-2.238 5-5 5z" fill="#ffab66"/></g><g><path d="m293.525 242.213h-84.583c-2.761 0-5-2.239-5-5s2.239-5 5-5h84.583c2.761 0 5 2.239 5 5s-2.238 5-5 5z" fill="#9494ff"/></g></g></g></g></g><g><g><path d="m161.962 320.568c-1.279 0-2.56-.488-3.535-1.465l-15.502-15.502c-1.953-1.952-1.953-5.118 0-7.07l15.502-15.502c1.951-1.953 5.119-1.953 7.07 0 1.953 1.952 1.953 5.118 0 7.07l-11.966 11.967 11.966 11.967c1.953 1.952 1.953 5.118 0 7.07-.975.977-2.256 1.465-3.535 1.465z" fill="#fff"/></g><g><path d="m201.64 320.568c-1.279 0-2.56-.488-3.535-1.465-1.953-1.952-1.953-5.118 0-7.07l11.966-11.967-11.966-11.966c-1.953-1.952-1.953-5.118 0-7.07 1.951-1.953 5.119-1.953 7.07 0l15.502 15.502c1.953 1.952 1.953 5.118 0 7.07l-15.502 15.502c-.976.976-2.256 1.464-3.535 1.464z" fill="#fff"/></g></g></g></g><g><path d="m40.765 45.544c-2.762 0-5-2.238-5-5 0-3.492-2.842-6.333-6.334-6.333-2.762 0-5-2.238-5-5s2.238-5 5-5c3.492 0 6.334-2.842 6.334-6.334 0-2.762 2.238-5 5-5s5 2.238 5 5c0 3.492 2.841 6.334 6.333 6.334 2.762 0 5 2.238 5 5s-2.238 5-5 5c-3.492 0-6.333 2.841-6.333 6.333 0 2.762-2.239 5-5 5z" fill="#8383ff"/></g><g><path d="m465.034 146.635c-2.762 0-5-2.238-5-5 0-3.492-2.841-6.334-6.333-6.334-2.762 0-5-2.238-5-5s2.238-5 5-5c3.492 0 6.333-2.841 6.333-6.333 0-2.762 2.238-5 5-5s5 2.238 5 5c0 3.492 2.842 6.333 6.334 6.333 2.762 0 5 2.238 5 5s-2.238 5-5 5c-3.492 0-6.334 2.842-6.334 6.334 0 2.761-2.238 5-5 5z" fill="#ff6c6c"/></g><g><path d="m249.265 470.646c-1.279 0-2.56-.488-3.535-1.465l-5.465-5.464-5.465 5.464c-1.951 1.953-5.119 1.953-7.07 0-1.953-1.952-1.953-5.118 0-7.07l9-9c1.951-1.953 5.119-1.953 7.07 0l9 9c1.953 1.952 1.953 5.118 0 7.07-.976.977-2.256 1.465-3.535 1.465z" fill="#ffab66"/></g><g><path d="m476.368 248.763c-1.279 0-2.56-.488-3.535-1.465l-5.465-5.464-5.465 5.464c-1.951 1.953-5.119 1.953-7.07 0-1.953-1.952-1.953-5.118 0-7.07l9-9c1.951-1.953 5.119-1.953 7.07 0l9 9c1.953 1.952 1.953 5.118 0 7.07-.975.976-2.256 1.465-3.535 1.465z" fill="#ff6c6c"/></g><g><path d="m199.043 483.685c-1.279 0-2.56-.488-3.535-1.465l-5.465-5.464-5.465 5.464c-1.951 1.953-5.119 1.953-7.07 0-1.953-1.952-1.953-5.118 0-7.07l9-9c1.951-1.953 5.119-1.953 7.07 0l9 9c1.953 1.952 1.953 5.118 0 7.07-.975.976-2.256 1.465-3.535 1.465z" fill="#8383ff"/></g></g></g></svg>