<?xml version="1.0" encoding="iso-8859-1"?>
<!-- Generator: Adobe Illustrator 19.0.0, SVG Export Plug-In . SVG Version: 6.00 Build 0)  -->
<svg version="1.1" id="Capa_1" xmlns="http://www.w3.org/2000/svg" xmlns:xlink="http://www.w3.org/1999/xlink" x="0px" y="0px"
	 viewBox="0 0 512 512" style="enable-background:new 0 0 512 512;" xml:space="preserve">
<path style="fill:#5B6EA2;" d="M478.103,512H33.897c-6.062,0-10.975-4.914-10.975-10.975V283.127c0-11.8,9.566-21.366,21.367-21.366
	h423.424c11.8,0,21.366,9.566,21.366,21.366v217.897C489.078,507.086,484.165,512,478.103,512z"/>
<path style="fill:#FDE27C;" d="M22.922,464.702v36.323c0,6.062,4.914,10.975,10.975,10.975h444.206
	c6.062,0,10.975-4.914,10.975-10.975v-36.323H22.922z"/>
<g>
	<path style="fill:#EEF0F1;" d="M177.38,356.966H98.831c-6.531,0-11.825-5.294-11.825-11.825v-26.344
		c0-6.531,5.294-11.825,11.825-11.825h78.549c6.531,0,11.825,5.294,11.825,11.825v26.344
		C189.205,351.672,183.911,356.966,177.38,356.966z"/>
	<polygon style="fill:#EEF0F1;" points="160.15,42.754 75.926,42.754 57.659,261.761 178.417,261.761 	"/>
</g>
<g>
	<polygon style="fill:#EC7887;" points="161.278,56.277 160.15,42.754 75.926,42.754 66.929,150.626 	"/>
	<polygon style="fill:#EC7887;" points="178.417,261.761 170.182,163.033 71.455,261.761 	"/>
</g>
<path style="opacity:0.1;enable-background:new    ;" d="M161.803,62.572l-1.653-19.818H75.926L57.659,261.761h58.955
	C97.145,211.839,100.089,113.206,103.59,70.71c0.379-4.601,4.22-8.137,8.836-8.137L161.803,62.572L161.803,62.572z"/>
<path style="fill:#5B6EA2;" d="M163.063,0h-90.05c-8.777,0-15.892,7.115-15.892,15.892v10.969c0,8.777,7.115,15.892,15.892,15.892
	h90.05c8.777,0,15.892-7.115,15.892-15.892V15.892C178.956,7.115,171.84,0,163.063,0z"/>
<g>
	<path style="fill:#609AD6;" d="M321.561,156.057v105.704H188.243l113.792-113.792C309.241,140.763,321.561,145.867,321.561,156.057
		z"/>
	<path style="fill:#609AD6;" d="M454.879,156.057v105.704H321.561l113.792-113.792C442.559,140.763,454.879,145.867,454.879,156.057
		z"/>
	<path style="fill:#609AD6;" d="M183.168,390.937H93.043c-8.543,0-15.469,6.926-15.469,15.469V512h121.063V406.406
		C198.637,397.863,191.711,390.937,183.168,390.937z"/>
</g>
<g>
	<path style="fill:#EEF0F1;" d="M303.536,405.444h-53.163c-5.303,0-9.602-4.299-9.602-9.602v-27.144
		c0-5.303,4.299-9.602,9.602-9.602h53.163c5.303,0,9.602,4.299,9.602,9.602v27.144C313.138,401.145,308.84,405.444,303.536,405.444z
		"/>
	<path style="fill:#EEF0F1;" d="M423.379,405.444h-53.163c-5.303,0-9.602-4.299-9.602-9.602v-27.144
		c0-5.303,4.299-9.602,9.602-9.602h53.163c5.303,0,9.602,4.299,9.602,9.602v27.144C432.981,401.145,428.682,405.444,423.379,405.444
		z"/>
</g>
<rect x="130.6" y="390.94" style="opacity:0.1;enable-background:new    ;" width="15" height="121.06"/>
<path style="opacity:0.1;enable-background:new    ;" d="M164.727,339.469h-53.244c-4.143,0-7.5-3.358-7.5-7.5
	c0-4.143,3.357-7.5,7.5-7.5h53.244c4.143,0,7.5,3.357,7.5,7.5C172.227,336.111,168.87,339.469,164.727,339.469z"/>
<path style="opacity:0.1;enable-background:new    ;" d="M44.288,261.761c-11.8,0-21.367,9.566-21.367,21.366v217.898
	c0,6.061,4.914,10.975,10.975,10.975h250.34c-125.968-35.996-115.199-196.784-98.186-250.239H44.288z"/>
<g style="opacity:0.1;">
	<path d="M260,326.5h-19.229c-4.143,0-7.5-3.357-7.5-7.5s3.357-7.5,7.5-7.5H260c4.143,0,7.5,3.357,7.5,7.5S264.143,326.5,260,326.5z
		"/>
	<path d="M66.735,381.711H47.507c-4.143,0-7.5-3.357-7.5-7.5s3.357-7.5,7.5-7.5h19.229c4.143,0,7.5,3.357,7.5,7.5
		C74.235,378.353,70.878,381.711,66.735,381.711z"/>
	<path d="M350.432,302.832h-19.229c-4.143,0-7.5-3.357-7.5-7.5c0-4.142,3.357-7.5,7.5-7.5h19.229c4.143,0,7.5,3.358,7.5,7.5
		C357.932,299.475,354.574,302.832,350.432,302.832z"/>
	<path d="M442.596,332.699h-19.229c-4.143,0-7.5-3.357-7.5-7.5s3.357-7.5,7.5-7.5h19.229c4.143,0,7.5,3.357,7.5,7.5
		S446.738,332.699,442.596,332.699z"/>
	<path d="M370.228,442.21H351c-4.143,0-7.5-3.357-7.5-7.5s3.357-7.5,7.5-7.5h19.228c4.143,0,7.5,3.357,7.5,7.5
		S374.371,442.21,370.228,442.21z"/>
</g>
<g style="opacity:0.1;">
	<rect x="389.3" y="464.7" width="15" height="47.3"/>
	<rect x="269.45" y="464.7" width="15" height="47.3"/>
</g>
<g>
</g>
<g>
</g>
<g>
</g>
<g>
</g>
<g>
</g>
<g>
</g>
<g>
</g>
<g>
</g>
<g>
</g>
<g>
</g>
<g>
</g>
<g>
</g>
<g>
</g>
<g>
</g>
<g>
</g>
</svg>
