<svg id="Capa_1" enable-background="new 0 0 512 512" height="512" viewBox="0 0 512 512" width="512" xmlns="http://www.w3.org/2000/svg"><g><path d="m338.713 487.629-8.766-10.956c-18.021-22.528-27.947-50.823-27.947-79.673 0-8.284-6.716-15-15-15h-102c-8.284 0-15 6.716-15 15 0 28.85-9.926 57.145-27.947 79.673l-8.766 10.957c-3.603 4.502-4.305 10.671-1.807 15.868h209.04c2.498-5.197 1.795-11.366-1.807-15.869z" fill="#453d81"/><path d="m329.947 476.673c-18.021-22.528-27.947-50.823-27.947-79.673 0-8.284-6.716-15-15-15h-51v121.498h104.52c2.498-5.197 1.796-11.366-1.807-15.868z" fill="#2e2654"/><path d="m357 512h-242c-8.284 0-15-6.716-15-15s6.716-15 15-15h242c8.284 0 15 6.716 15 15s-6.716 15-15 15z" fill="#5e54ac"/><path d="m357 482h-121v30h121c8.284 0 15-6.716 15-15s-6.716-15-15-15z" fill="#453d81"/><path d="m427 60h-382c-24.813 0-45 20.187-45 45v262c0 24.813 20.187 45 45 45h382c24.813 0 45-20.187 45-45v-262c0-24.813-20.187-45-45-45z" fill="#5e54ac"/><path d="m427 60h-191v352h191c24.813 0 45-20.187 45-45v-262c0-24.813-20.187-45-45-45z" fill="#453d81"/><path d="m45 90h382c8.271 0 15 6.729 15 15v217h-412v-217c0-8.271 6.729-15 15-15z" fill="#ff6378"/><path d="m427 90h-191v232h206v-217c0-8.271-6.729-15-15-15z" fill="#d0004f"/><path d="m125 0h-90c-19.299 0-35 15.701-35 35v170c0 24.813 20.187 45 45 45h70c24.813 0 45-20.187 45-45v-170c0-19.299-15.701-35-35-35z" fill="#e1f0ff"/><path d="m125 0h-45v250h35c24.813 0 45-20.187 45-45v-170c0-19.299-15.701-35-35-35z" fill="#bedcf0"/><path d="m30 35c0-2.757 2.243-5 5-5h90c2.757 0 5 2.243 5 5v140h-100z" fill="#45f6ff"/><path d="m130 35c0-2.757-2.243-5-5-5h-45v145h50z" fill="#2ebeef"/><g><path d="m467 200h-30-180c-19.299 0-35-15.701-35-35v-130c0-19.299 15.701-35 35-35h180 30c24.813 0 45 20.187 45 45v110c0 24.813-20.187 45-45 45z" fill="#e1f0ff"/><path d="m512 155c0 24.813-20.187 45-45 45h-30-180c-19.299 0-35-15.701-35-35v-65h290z" fill="#bedcf0"/><path d="m252 35v130c0 2.757 2.243 5 5 5h175v-140h-175c-2.757 0-5 2.243-5 5z" fill="#45f6ff"/><path d="m432 170h-175c-2.757 0-5-2.243-5-5v-65h180z" fill="#2ebeef"/></g></g></svg>