<svg id="Capa_1" enable-background="new 0 0 512 512" height="512" viewBox="0 0 512 512" width="512" xmlns="http://www.w3.org/2000/svg"><g><g><g><g><g><path d="m255.165 117.158c-76.18 0-137.936 61.756-137.936 137.936s61.756 137.936 137.936 137.936c.279 0 .556-.009.835-.011l57.781-137.002-57.781-138.848c-.279-.002-.556-.011-.835-.011z" fill="#fff5f5"/><path d="m393.101 255.095c0-75.901-61.306-137.475-137.101-137.926v275.852c75.795-.451 137.101-62.025 137.101-137.926z" fill="#e6e9f2"/></g><g><path d="m240.778 191.899v68.999l-31.14 25.759 19.404 23.458 26.958-22.3 7.611-47.958-7.611-47.958z" fill="#143d66"/><path d="m240.778 353.762v27.242c-57.282-6.934-102.83-52.482-109.765-109.764h27.243v-30.444h-27.243c6.935-57.282 52.482-102.83 109.765-109.765v27.242h15.222l7.611-30.365-7.611-28.243c-86.213 0-156.353 70.14-156.353 156.353s70.14 156.353 156.353 156.353l10.901-21.121-10.901-37.488z" fill="#7d89e5"/></g><path d="m271.222 191.899h-15.222v95.916l15.222-12.591z" fill="#102840"/><path d="m256 99.665v58.609h15.222v-27.242c57.282 6.935 102.83 52.482 109.765 109.765h-27.243v30.444h27.243c-6.935 57.282-52.482 102.83-109.765 109.764v-27.242h-15.222v58.609c86.213 0 156.353-70.139 156.353-156.353s-70.14-156.354-156.353-156.354z" fill="#706bef"/></g></g></g><g><path d="m238.675.604c-61.738 4.164-119.862 30.581-163.665 74.385-37.526 37.526-62.141 84.907-71.185 137.02-8.839 50.938-2.289 102.66 18.942 149.573l27.327-12.367c-18.743-41.414-24.523-87.085-16.715-132.077 7.98-45.988 29.71-87.808 62.841-120.939 38.67-38.671 89.979-61.991 144.474-65.668 5.11-.345 10.214-.514 15.306-.514l15.222-14.962-15.222-15.035c-5.763 0-11.541.193-17.325.584z" fill="#daf2fe"/><path d="m409.177 50.872c-44.193-33.083-98.012-50.854-153.177-50.852v29.997c48.706.003 96.207 15.676 135.201 44.867z" fill="#b2dcfd"/><path d="m121.072 437.317-17.941 24.039c44.134 32.938 97.837 50.619 152.869 50.624l19.2-15.312-19.2-14.684c-48.583-.006-95.99-15.607-134.928-44.667z" fill="#daf2fe"/><path d="m490.838 154.035-27.515 11.942c17.848 41.128 23.036 86.281 15.002 130.58-8.219 45.315-29.845 86.55-62.54 119.246-38.629 38.629-89.881 61.946-144.315 65.656-5.16.353-10.306.526-15.449.526-.007 0-.013 0-.02 0v29.995h.023c5.817 0 11.65-.197 17.486-.596 61.668-4.204 119.728-30.616 163.485-74.373 37.033-37.035 61.531-83.752 70.844-135.103 9.095-50.153 3.217-101.286-17.001-147.873z" fill="#b2dcfd"/></g><circle cx="85.615" cy="426.406" fill="#5ed8d3" r="47.569"/><circle cx="426.389" cy="85.632" fill="#fc6fd2" r="47.569"/></g></svg>